<svg width="250" height="70" viewBox="0 0 250 70" fill="none" xmlns="http://www.w3.org/2000/svg">
<path d="M35.7616 6.77344H34.0078V19.468H35.7616V6.77344Z" fill="white"/>
<path d="M34.885 7.43305C32.8305 7.43305 31.1602 5.77105 31.1602 3.71653C31.1602 1.662 32.8305 0 34.885 0C36.9395 0 38.6017 1.662 38.6017 3.71653C38.6017 5.77105 36.9395 7.43305 34.885 7.43305ZM36.8477 3.71653C36.8477 2.63916 35.9707 1.75389 34.885 1.75389C33.7993 1.75389 32.9225 2.63916 32.9225 3.71653C32.9225 4.7939 33.7909 5.67085 34.885 5.67085C35.9791 5.67085 36.8477 4.7939 36.8477 3.71653Z" fill="white"/>
<path d="M69.7454 34.0166H57.0508V35.7788H69.7454V34.0166Z" fill="white"/>
<path d="M57.7103 34.9026C57.7103 36.9571 56.0483 38.6191 53.9938 38.6191C51.9393 38.6191 50.2773 36.9571 50.2773 34.9026C50.2773 32.8481 51.9393 31.1777 53.9938 31.1777C56.0483 31.1777 57.7103 32.8481 57.7103 34.9026ZM53.9938 32.9399C52.9164 32.9399 52.0394 33.8169 52.0394 34.8943C52.0394 35.9716 52.9164 36.8653 53.9938 36.8653C55.0712 36.8653 55.9566 35.9883 55.9566 34.8943C55.9566 33.8002 55.0795 32.9399 53.9938 32.9399Z" fill="white"/>
<path d="M12.6946 34.0078H0V35.77H12.6946V34.0078Z" fill="white"/>
<path d="M15.7428 31.1689C17.7974 31.1689 19.4677 32.831 19.4677 34.8938C19.4677 36.9567 17.8057 38.6104 15.7428 38.6104C13.68 38.6104 12.0264 36.9484 12.0264 34.8938C12.0264 32.8393 13.6967 31.1689 15.7428 31.1689ZM13.7885 34.8855C13.7885 35.9712 14.6655 36.8481 15.7512 36.8481C16.8369 36.8481 17.7139 35.9628 17.7139 34.8855C17.7139 33.8081 16.8369 32.9311 15.7512 32.9311C14.6655 32.9311 13.7885 33.8081 13.7885 34.8855Z" fill="white"/>
<path d="M35.7455 50.3193H33.9834V63.014H35.7455V50.3193Z" fill="white"/>
<path d="M34.8602 62.3369C36.9148 62.3369 38.5851 64.0073 38.5851 66.0534C38.5851 68.0996 36.9231 69.7783 34.8602 69.7783C32.7974 69.7783 31.1436 68.108 31.1436 66.0534C31.1436 63.9989 32.8057 62.3369 34.8602 62.3369ZM32.8975 66.0534C32.8975 67.1392 33.7745 68.0244 34.8602 68.0244C35.946 68.0244 36.8228 67.1475 36.8228 66.0534C36.8228 64.9594 35.946 64.0991 34.8602 64.0991C33.7745 64.0991 32.8975 64.9761 32.8975 66.0534Z" fill="white"/>
<path d="M45.207 15.2165L51.5544 4.22559L53.0743 5.0942L46.7271 16.0934L45.207 15.2165Z" fill="white"/>
<path d="M46.2927 15.0828C48.0716 16.11 48.6812 18.3817 47.654 20.1606C46.6267 21.9395 44.3552 22.5492 42.5762 21.522C40.7973 20.4947 40.1875 18.223 41.2148 16.4441C42.2337 14.6652 44.5138 14.0639 46.2844 15.0744M42.7349 17.3127C42.192 18.2564 42.5093 19.4507 43.4447 19.9936C44.38 20.5281 45.5829 20.2107 46.1257 19.2753C46.6686 18.3316 46.3428 17.1373 45.4074 16.5944C44.472 16.0516 43.2694 16.3773 42.7349 17.3127Z" fill="white"/>
<path d="M10.8985 20.0289L10.0215 21.5479L21.0154 27.8952L21.8923 26.3762L10.8985 20.0289Z" fill="white"/>
<path d="M6.00509 22.5247C4.23452 21.4974 3.61639 19.2174 4.64365 17.4385C5.67091 15.6596 7.94265 15.0499 9.72156 16.0771C11.5005 17.1044 12.1101 19.3761 11.0828 21.155C10.0555 22.9339 7.78401 23.5436 6.00509 22.5163M9.56293 20.2697C10.1058 19.3343 9.77999 18.1317 8.84459 17.5888C7.9092 17.0459 6.70658 17.3717 6.16372 18.3071C5.62921 19.2425 5.94667 20.4451 6.88206 20.9796C7.8258 21.5225 9.02007 21.2051 9.56293 20.2614" fill="white"/>
<path d="M24.5376 54.5615L18.1902 65.5607L16.6787 64.6838L23.0175 53.6846L24.5376 54.5615Z" fill="white"/>
<path d="M23.4521 54.6953C21.6731 53.6764 21.0636 51.3964 22.0908 49.6175C23.1181 47.8469 25.3896 47.2373 27.1602 48.2562C28.9475 49.2834 29.5489 51.5551 28.5216 53.334C27.5027 55.113 25.2226 55.7143 23.4521 54.687M27.0099 52.4488C27.5528 51.5134 27.2355 50.3107 26.2918 49.7762C25.3564 49.2333 24.1536 49.5507 23.6107 50.4944C23.0762 51.4298 23.3937 52.6325 24.3374 53.1754C25.2811 53.7182 26.4754 53.3925 27.0183 52.4571" fill="white"/>
<path d="M59.6734 48.1891L48.6824 41.8418L47.8057 43.3701L58.8048 49.7175L59.6734 48.1891Z" fill="white"/>
<path d="M63.7315 47.2538C65.5104 48.2811 66.1202 50.5527 65.0929 52.3317C64.0656 54.1022 61.7939 54.7119 60.0234 53.6846C58.2444 52.6657 57.6349 50.394 58.6621 48.6068C59.6894 46.8362 61.9609 46.2265 63.7315 47.2454M60.182 49.4837C59.6391 50.4274 59.9566 51.6218 60.9003 52.1646C61.8357 52.7075 63.0383 52.3818 63.5812 51.4464C64.1241 50.511 63.7983 49.3083 62.8629 48.7655C61.9275 48.2226 60.7249 48.5483 60.182 49.4837Z" fill="white"/>
<path d="M58.7447 19.8744L47.752 26.2236L48.6292 27.7424L59.6219 21.3932L58.7447 19.8744Z" fill="white"/>
<path d="M58.6621 21.1717C57.6349 19.3928 58.2444 17.1128 60.0234 16.0939C61.8023 15.0666 64.074 15.6846 65.0929 17.4552C66.1202 19.2341 65.5104 21.5058 63.7315 22.5331C61.9526 23.552 59.6894 22.9507 58.6621 21.1717ZM62.8629 21.0131C63.7983 20.4702 64.1241 19.2675 63.5812 18.3321C63.0383 17.4051 61.8441 17.0794 60.9087 17.6139C59.9649 18.1568 59.6391 19.3594 60.1903 20.2865C60.7332 21.2302 61.9358 21.5476 62.8712 21.0131" fill="white"/>
<path d="M24.5376 15.2076L18.1902 4.2168L16.6787 5.09372L23.0175 16.0846L24.5376 15.2076Z" fill="white"/>
<path d="M28.5212 16.4362C29.5485 18.2068 28.9387 20.4868 27.1598 21.5141C25.3808 22.533 23.1093 21.9233 22.082 20.1444C21.0548 18.3655 21.6644 16.0939 23.4433 15.0666C25.2222 14.0477 27.4939 14.649 28.5128 16.4279M24.3202 16.5866C23.3765 17.1211 23.0592 18.3321 23.5938 19.2591C24.1366 20.2029 25.3309 20.5286 26.2746 19.9857C27.2184 19.4345 27.5356 18.2402 26.9928 17.3048C26.4499 16.3695 25.2556 16.0437 24.3202 16.5866Z" fill="white"/>
<path d="M10.0723 48.1807L21.0633 41.8418L21.94 43.3618L10.9492 49.7007L10.0723 48.1807Z" fill="white"/>
<path d="M11.0915 48.6148C12.1187 50.3854 11.5091 52.657 9.73022 53.6927C7.9513 54.7116 5.67957 54.1019 4.65231 52.323C3.62504 50.544 4.23482 48.2724 6.01374 47.2451C7.79266 46.2178 10.0642 46.8275 11.0915 48.6064M6.89071 48.7651C5.95532 49.308 5.63787 50.4939 6.17238 51.446C6.71524 52.3814 7.90949 52.6988 8.84489 52.1643C9.78863 51.6131 10.1061 50.4188 9.57159 49.4834C9.02872 48.548 7.82611 48.2223 6.89071 48.7651Z" fill="white"/>
<path d="M45.207 54.5703L51.5544 65.5695L53.0743 64.6842L46.7271 53.6934L45.207 54.5703Z" fill="white"/>
<path d="M41.2236 53.3514C40.1963 51.5725 40.8061 49.3008 42.585 48.2736C44.3639 47.2463 46.6355 47.8643 47.6627 49.6349C48.69 51.4138 48.0804 53.6855 46.3015 54.7127C44.5309 55.74 42.2592 55.1303 41.232 53.3514M45.4329 53.1843C46.3766 52.6498 46.6939 51.4472 46.151 50.5118C45.6082 49.5764 44.4056 49.259 43.4702 49.7935C42.5348 50.3281 42.2175 51.5307 42.752 52.4828C43.2949 53.4182 44.4892 53.7356 45.4329 53.1843Z" fill="white"/>
<path d="M82.0718 39.8282V43.503H81.1031V39.8115L77.9043 33.4893H79.0319L81.5875 38.6924L84.1681 33.4893H85.2706L82.0718 39.8282Z" fill="white"/>
<path d="M85.4541 35.9361H86.4063V39.9533C86.4063 40.9805 86.5732 41.7071 86.9073 42.1498C87.2497 42.5757 87.7926 42.7928 88.5609 42.7928C88.9952 42.7928 89.3878 42.701 89.7136 42.5256C90.0476 42.3502 90.3148 42.0913 90.5069 41.7572C90.6239 41.5568 90.6991 41.3313 90.7575 41.0557C90.8076 40.7968 90.8326 40.3208 90.8326 39.6526V35.9277H91.8015V43.4944H90.8326V42.6843C90.5403 43.0434 90.2146 43.3023 89.8471 43.461C89.4796 43.6197 89.0453 43.7032 88.5358 43.7032C87.4418 43.7032 86.6568 43.4109 86.1724 42.8179C85.688 42.2333 85.4541 41.2561 85.4541 39.8864V35.9361Z" fill="white"/>
<path d="M99.4597 42.3085C99.159 42.7512 98.7498 43.0936 98.232 43.3358C97.7142 43.5863 97.1546 43.7032 96.5616 43.7032C95.4509 43.7032 94.5321 43.3274 93.7888 42.5591C93.0539 41.8074 92.6865 40.8637 92.6865 39.7529C92.6865 38.6421 93.0622 37.6733 93.8139 36.9049C94.5739 36.1533 95.5094 35.7607 96.6452 35.7607C97.2299 35.7607 97.7643 35.8777 98.2487 36.1199C98.7331 36.3537 99.1423 36.6962 99.4597 37.1388V35.9278H100.412V43.4944H99.4597V42.3002V42.3085ZM99.4597 39.6693C99.4597 38.8759 99.1757 38.166 98.5994 37.5731C98.0231 36.9717 97.3635 36.6795 96.6202 36.6795C95.81 36.6795 95.1169 36.9801 94.5489 37.5731C93.9727 38.166 93.697 38.9094 93.697 39.803C93.697 40.6465 93.981 41.3564 94.5489 41.941C95.1169 42.5257 95.8017 42.8096 96.6034 42.8096C97.4052 42.8096 98.0482 42.5006 98.6078 41.8909C99.184 41.2813 99.468 40.5379 99.468 39.6777" fill="white"/>
<path d="M101.657 35.9354H102.601V36.804C102.893 36.4532 103.244 36.2027 103.636 36.044C104.029 35.877 104.472 35.8018 104.981 35.8018C105.532 35.8018 106.025 35.902 106.459 36.1025C106.894 36.3196 107.236 36.6119 107.487 36.9961C107.662 37.2717 107.787 37.589 107.863 37.9565C107.929 38.3156 107.971 38.8501 107.971 39.5684V43.5188H107.011V39.2845C107.011 38.3908 106.843 37.7477 106.501 37.3469C106.159 36.9376 105.607 36.7371 104.864 36.7371C104.422 36.7371 104.037 36.8207 103.703 36.9961C103.369 37.1715 103.102 37.4304 102.918 37.7561C102.793 37.9565 102.71 38.1987 102.668 38.466C102.618 38.7249 102.601 39.1842 102.601 39.844V43.5188H101.657V35.9521V35.9354Z" fill="white"/>
<path d="M117.108 34.4664H112.706V33.4893H118.243V34.4246L113.558 42.5341H118.344V43.503H112.431V42.5592L117.108 34.4664Z" fill="white"/>
<path d="M126.528 40.0365H119.696C119.763 40.8549 120.055 41.5231 120.59 42.0325C121.124 42.542 121.792 42.7925 122.594 42.7925C123.162 42.7925 123.68 42.6422 124.131 42.3583C124.582 42.0576 124.941 41.6483 125.183 41.1305H126.286C125.935 41.9657 125.442 42.6088 124.816 43.0515C124.181 43.5025 123.454 43.7196 122.628 43.7196C121.525 43.7196 120.59 43.327 119.838 42.542C119.078 41.7569 118.686 40.8132 118.686 39.7108C118.686 38.6084 119.07 37.6061 119.813 36.8545C120.556 36.1028 121.508 35.7354 122.669 35.7354C123.83 35.7354 124.732 36.1279 125.451 36.9046C126.169 37.6896 126.528 38.7002 126.528 39.9613V40.0365ZM125.459 39.1846C125.275 38.3411 124.941 37.7063 124.448 37.2888C123.964 36.8628 123.321 36.6457 122.527 36.6457C121.784 36.6457 121.166 36.8795 120.657 37.3305C120.147 37.7899 119.838 38.4079 119.721 39.1846H125.451H125.459Z" fill="white"/>
<path d="M131.063 33.4893H132.049V39.8282C132.049 40.3126 132.066 40.6801 132.107 40.9223C132.141 41.1645 132.208 41.3816 132.3 41.5737C132.475 41.9579 132.742 42.2419 133.093 42.4674C133.435 42.6762 133.828 42.793 134.262 42.793C135.022 42.793 135.573 42.5341 135.932 42.0163C136.3 41.5069 136.475 40.7051 136.475 39.6278V33.4976H137.452V39.8699C137.452 41.1645 137.194 42.1333 136.676 42.768C136.158 43.4027 135.381 43.7201 134.329 43.7201C133.201 43.7201 132.383 43.4111 131.848 42.7847C131.322 42.1667 131.063 41.1812 131.063 39.8616V33.4893Z" fill="white"/>
<path d="M138.738 35.9354H139.69V36.804C139.983 36.4532 140.334 36.2027 140.726 36.044C141.119 35.877 141.561 35.8018 142.071 35.8018C142.622 35.8018 143.115 35.902 143.549 36.1025C143.983 36.3196 144.326 36.6119 144.584 36.9961C144.752 37.2717 144.877 37.589 144.96 37.9565C145.035 38.3156 145.069 38.8501 145.069 39.5684V43.5188H144.117V39.2845C144.117 38.3908 143.95 37.7477 143.607 37.3469C143.265 36.9376 142.714 36.7371 141.962 36.7371C141.519 36.7371 141.135 36.8207 140.801 36.9961C140.467 37.1715 140.208 37.4304 140.008 37.7561C139.891 37.9565 139.807 38.1987 139.757 38.466C139.707 38.7249 139.69 39.1842 139.69 39.844V43.5188H138.738V35.9521V35.9354Z" fill="white"/>
<path d="M147.307 35.051H146.338V33.4893H147.307V35.051ZM146.33 35.9363H147.299V43.503H146.33V35.9363Z" fill="white"/>
<path d="M151.55 43.5032H150.665L147.7 35.9365H148.727L151.15 42.0416L153.597 35.9365H154.649L151.55 43.5032Z" fill="white"/>
<path d="M162.458 40.0365H155.618C155.685 40.8549 155.977 41.5231 156.52 42.0325C157.054 42.542 157.722 42.7925 158.524 42.7925C159.1 42.7925 159.61 42.6422 160.061 42.3583C160.52 42.0576 160.863 41.6483 161.113 41.1305H162.216C161.873 41.9657 161.381 42.6088 160.746 43.0515C160.12 43.5025 159.384 43.7196 158.558 43.7196C157.464 43.7196 156.528 43.327 155.768 42.542C155 41.7569 154.624 40.8132 154.624 39.7108C154.624 38.6084 155 37.6061 155.743 36.8545C156.487 36.1028 157.447 35.7354 158.599 35.7354C159.752 35.7354 160.662 36.1279 161.381 36.9046C162.099 37.6896 162.458 38.7002 162.458 39.9613V40.0365ZM161.389 39.1846C161.205 38.3411 160.871 37.7063 160.37 37.2888C159.886 36.8628 159.251 36.6457 158.458 36.6457C157.714 36.6457 157.105 36.8795 156.595 37.3305C156.086 37.7899 155.777 38.4079 155.66 39.1846H161.397H161.389Z" fill="white"/>
<path d="M164.262 43.5024H163.276V35.9357H164.195V36.8126C164.429 36.4786 164.688 36.228 164.972 36.0693C165.256 35.919 165.581 35.8271 165.957 35.8271V36.8795C165.356 36.9379 164.922 37.1217 164.663 37.4307C164.395 37.7397 164.262 38.2408 164.262 38.9423V43.5107V43.5024Z" fill="white"/>
<path d="M166.048 41.1309H167.042V41.156C167.042 41.632 167.184 42.0162 167.451 42.3252C167.718 42.6342 168.052 42.7929 168.453 42.7929C168.829 42.7929 169.146 42.6676 169.405 42.4338C169.656 42.2083 169.781 41.8992 169.781 41.5401C169.781 41.181 169.681 40.8804 169.48 40.6716C169.28 40.4461 168.921 40.2373 168.395 40.0535C167.56 39.7529 167.008 39.4438 166.758 39.1432C166.499 38.8258 166.365 38.4166 166.365 37.8821C166.365 37.2975 166.582 36.7964 167.008 36.3705C167.443 35.9612 167.96 35.7607 168.57 35.7607C169.213 35.7607 169.731 35.9445 170.107 36.3036C170.491 36.6795 170.691 37.1889 170.725 37.8487H169.681C169.656 37.4895 169.547 37.2139 169.338 37.0135C169.138 36.8214 168.854 36.7212 168.503 36.7212C168.186 36.7212 167.927 36.8298 167.718 37.0386C167.501 37.2557 167.401 37.5229 167.401 37.8403C167.401 38.0575 167.451 38.2495 167.534 38.4082C167.626 38.5586 167.768 38.7005 167.969 38.8258C168.153 38.9427 168.42 39.043 168.771 39.1515C169.121 39.2601 169.355 39.3353 169.472 39.3854C169.948 39.5859 170.291 39.8614 170.524 40.1955C170.742 40.5212 170.858 40.9555 170.858 41.4733C170.858 42.1248 170.633 42.6676 170.182 43.0936C169.723 43.5195 169.146 43.7283 168.453 43.7283C167.76 43.7283 167.167 43.5028 166.741 43.0351C166.307 42.5674 166.081 41.941 166.056 41.156" fill="white"/>
<path d="M172.714 35.051H171.745V33.4893H172.714V35.051ZM171.745 35.9363H172.714V43.503H171.745V35.9363Z" fill="white"/>
<path d="M174.667 43.503V36.9134H173.222V35.9363H174.667V33.4893H175.627V35.9363H177.072V36.9134H175.627V43.503H174.667Z" fill="white"/>
<path d="M176.563 35.9365H177.674L180.013 42.0834L182.468 35.9365H183.596L179.503 45.9586H178.468L179.478 43.4865L176.563 35.9365Z" fill="white"/>
<path d="M80.1429 46.5674H79.1572V56.5811H80.1429V46.5674Z" fill="white"/>
<path d="M81.5713 49.0238H82.5149V49.8757C82.8072 49.5333 83.158 49.2827 83.5505 49.124C83.9431 48.957 84.3858 48.8818 84.8953 48.8818C85.4465 48.8818 85.9392 48.982 86.3735 49.1825C86.8078 49.3996 87.1502 49.6919 87.4008 50.0761C87.5762 50.3517 87.7014 50.6608 87.7766 51.0282C87.8517 51.3957 87.8852 51.9386 87.8852 52.6485V56.5988H86.933V52.3561C86.933 51.4625 86.7661 50.8111 86.4237 50.4102C86.0813 50.001 85.5299 49.8005 84.7782 49.8005C84.3356 49.8005 83.9515 49.8924 83.6174 50.0678C83.2834 50.2432 83.0245 50.5104 82.8324 50.8278C82.7071 51.0282 82.6236 51.2621 82.5818 51.5377C82.5317 51.8049 82.5149 52.2559 82.5149 52.9157V56.5988H81.5713V49.0322V49.0238Z" fill="white"/>
<path d="M90.4983 56.5902H89.5547V49.8754H88.5439V49.0235H89.5129V48.8147C89.5129 48.013 89.7217 47.42 90.1225 47.0358C90.5234 46.6516 91.1498 46.4512 91.9933 46.4512H92.0851V47.3198C91.5004 47.3365 91.0912 47.445 90.849 47.6705C90.6068 47.896 90.49 48.2719 90.49 48.8147V49.0235H92.0851V49.8754H90.4983V56.5902Z" fill="white"/>
<path d="M92.3359 52.8068C92.3359 51.696 92.7119 50.7522 93.4802 49.9588C94.2402 49.1738 95.1422 48.7812 96.1778 48.7812C97.2719 48.7812 98.2155 49.1738 98.9839 49.9422C99.7606 50.7272 100.145 51.6542 100.145 52.7149C100.145 53.8424 99.769 54.8112 99.009 55.6046C98.2489 56.4064 97.3304 56.8072 96.2531 56.8072C95.1757 56.8072 94.2319 56.4147 93.4719 55.6213C92.7119 54.8446 92.3359 53.9009 92.3359 52.8068ZM93.3548 52.7901C93.3548 53.6586 93.6304 54.3936 94.19 54.9782C94.7496 55.5628 95.4344 55.8635 96.2612 55.8635C97.088 55.8635 97.7563 55.5712 98.3075 54.9782C98.8588 54.3852 99.1344 53.6586 99.1344 52.7733C99.1344 51.8881 98.8587 51.1532 98.2992 50.5685C97.7396 49.9923 97.0297 49.7083 96.1778 49.7083C95.4095 49.7083 94.7412 50.0006 94.19 50.6019C93.6388 51.1949 93.3632 51.9215 93.3632 52.7901" fill="white"/>
<path d="M101.966 56.5908H100.98V49.0242H101.899V49.9011C102.133 49.5587 102.392 49.3165 102.676 49.1661C102.96 49.0074 103.286 48.9239 103.661 48.9072V49.9596C103.06 50.018 102.626 50.2018 102.358 50.5108C102.091 50.8198 101.958 51.3209 101.958 52.0141V56.5825L101.966 56.5908Z" fill="white"/>
<path d="M110.184 50.201C110.493 49.7667 110.869 49.4409 111.328 49.2154C111.787 48.9899 112.297 48.873 112.865 48.873C113.884 48.873 114.644 49.1737 115.103 49.7917C115.571 50.4014 115.805 51.4036 115.805 52.7649V56.5817H114.869V52.5645C114.869 51.5706 114.711 50.8524 114.377 50.4265C114.042 50.0005 113.508 49.7834 112.756 49.7834C112.322 49.7834 111.954 49.8752 111.62 50.0506C111.286 50.226 111.036 50.4933 110.835 50.8107C110.718 51.0111 110.635 51.2449 110.585 51.5205C110.535 51.7878 110.51 52.2388 110.51 52.8986V56.5817H109.591V52.339C109.591 51.4705 109.416 50.8273 109.065 50.4181C108.714 49.9922 108.171 49.7917 107.436 49.7917C106.994 49.7917 106.609 49.8836 106.275 50.059C105.941 50.2344 105.682 50.5016 105.49 50.819C105.373 51.0195 105.29 51.2533 105.24 51.5289C105.198 51.7961 105.173 52.2472 105.173 52.9069V56.59H104.221V49.0234H105.173V49.8753C105.465 49.5495 105.799 49.299 106.2 49.1319C106.593 48.9649 107.035 48.873 107.528 48.873C108.104 48.873 108.63 48.99 109.098 49.2322C109.574 49.466 109.925 49.7918 110.176 50.201" fill="white"/>
<path d="M123.471 55.3953C123.162 55.8296 122.762 56.172 122.244 56.4226C121.726 56.6731 121.166 56.79 120.573 56.79C119.463 56.79 118.535 56.4142 117.801 55.6459C117.066 54.8942 116.698 53.9505 116.698 52.8397C116.698 51.7289 117.074 50.7601 117.826 50.0001C118.586 49.2401 119.521 48.8643 120.657 48.8643C121.242 48.8643 121.776 48.9728 122.26 49.215C122.745 49.4489 123.154 49.7913 123.471 50.234V49.0229H124.424V56.5896H123.471V55.3953ZM123.471 52.7562C123.471 51.9544 123.187 51.2529 122.611 50.6515C122.035 50.0586 121.375 49.7495 120.632 49.7495C119.822 49.7495 119.129 50.0586 118.561 50.6515C117.984 51.2529 117.7 51.9962 117.7 52.8814C117.7 53.7166 117.984 54.4349 118.561 55.0195C119.129 55.6041 119.813 55.8881 120.615 55.8881C121.417 55.8881 122.052 55.579 122.619 54.9694C123.196 54.3513 123.48 53.6164 123.48 52.7562" fill="white"/>
<path d="M126.328 56.5909V49.993H124.899V49.0242H126.328V46.5771H127.305V49.0242H128.741V49.993H127.305V56.5909H126.328Z" fill="white"/>
<path d="M130.22 48.1389H129.251V46.5771H130.22V48.1389ZM129.251 49.0242H130.22V56.5909H129.251V49.0242Z" fill="white"/>
<path d="M131.097 52.8068C131.097 51.696 131.481 50.7522 132.241 49.9588C133.001 49.1738 133.903 48.7812 134.947 48.7812C136.049 48.7812 136.985 49.1738 137.753 49.9422C138.53 50.7272 138.914 51.6542 138.914 52.7149C138.914 53.8424 138.538 54.8112 137.778 55.6046C137.018 56.4064 136.099 56.8072 135.03 56.8072C133.961 56.8072 133.001 56.4147 132.249 55.6213C131.489 54.8446 131.113 53.9009 131.113 52.8068M132.132 52.7901C132.132 53.6586 132.416 54.3936 132.967 54.9782C133.519 55.5628 134.212 55.8635 135.039 55.8635C135.865 55.8635 136.534 55.5712 137.085 54.9782C137.628 54.3852 137.912 53.6586 137.912 52.7733C137.912 51.8881 137.636 51.1532 137.076 50.5685C136.517 49.9923 135.815 49.7083 134.955 49.7083C134.187 49.7083 133.527 50.0006 132.976 50.6019C132.425 51.1949 132.141 51.9215 132.141 52.7901" fill="white"/>
<path d="M139.766 49.0238H140.709V49.8757C141.002 49.5333 141.353 49.2827 141.745 49.124C142.138 48.957 142.588 48.8818 143.09 48.8818C143.641 48.8818 144.142 48.982 144.576 49.1825C145.002 49.3996 145.353 49.6919 145.603 50.0761C145.779 50.3517 145.904 50.6608 145.979 51.0282C146.054 51.3957 146.096 51.9386 146.096 52.6485V56.5988H145.136V52.3561C145.136 51.4625 144.969 50.8111 144.626 50.4102C144.276 50.001 143.733 49.8005 142.989 49.8005C142.547 49.8005 142.163 49.8924 141.828 50.0678C141.494 50.2432 141.236 50.5104 141.043 50.8278C140.927 51.0282 140.843 51.2621 140.793 51.5377C140.743 51.8049 140.718 52.2559 140.718 52.9157V56.5988H139.774V49.0322L139.766 49.0238Z" fill="white"/>
<path d="M159.175 49.1655C158.724 48.5308 158.223 48.0798 157.671 47.7875C157.12 47.4952 156.486 47.3532 155.767 47.3532C154.657 47.3532 153.704 47.7625 152.911 48.5893C152.118 49.4077 151.725 50.3933 151.725 51.5291C151.725 52.7401 152.118 53.759 152.903 54.5859C153.688 55.4127 154.648 55.8303 155.767 55.8303C156.46 55.8303 157.087 55.6799 157.646 55.3959C158.206 55.112 158.69 54.6777 159.108 54.1098H160.277C159.818 54.9533 159.208 55.6214 158.432 56.0808C157.663 56.5485 156.803 56.7823 155.843 56.7823C154.364 56.7823 153.137 56.2812 152.151 55.2707C151.166 54.2684 150.673 53.0157 150.673 51.5124C150.673 50.8108 150.815 50.1427 151.074 49.5164C151.341 48.8816 151.733 48.322 152.243 47.8126C152.719 47.3449 153.262 46.9691 153.847 46.7269C154.44 46.4847 155.091 46.3594 155.776 46.3594C156.769 46.3594 157.672 46.6099 158.465 47.0943C159.258 47.5704 159.893 48.2636 160.353 49.1572H159.166L159.175 49.1655Z" fill="white"/>
<path d="M160.945 52.8068C160.945 51.696 161.329 50.7522 162.089 49.9588C162.849 49.1738 163.751 48.7812 164.795 48.7812C165.839 48.7812 166.825 49.1738 167.602 49.9422C168.378 50.7272 168.762 51.6542 168.762 52.7149C168.762 53.8424 168.387 54.8112 167.627 55.6046C166.867 56.4064 165.948 56.8072 164.871 56.8072C163.793 56.8072 162.841 56.4147 162.089 55.6213C161.329 54.8446 160.954 53.9009 160.954 52.8068M161.973 52.7901C161.973 53.6586 162.248 54.3936 162.808 54.9782C163.367 55.5628 164.052 55.8635 164.879 55.8635C165.706 55.8635 166.374 55.5712 166.925 54.9782C167.476 54.3852 167.752 53.6586 167.752 52.7733C167.752 51.8881 167.468 51.1532 166.908 50.5685C166.349 49.9923 165.647 49.7083 164.787 49.7083C164.019 49.7083 163.359 50.0006 162.799 50.6019C162.248 51.1949 161.964 51.9215 161.964 52.7901" fill="white"/>
<path d="M175.553 50.201C175.862 49.7667 176.246 49.4409 176.697 49.2154C177.156 48.9899 177.665 48.873 178.233 48.873C179.261 48.873 180.004 49.1737 180.472 49.7917C180.939 50.4014 181.182 51.4036 181.182 52.7649V56.5817H180.246V52.5645C180.246 51.5706 180.079 50.8524 179.753 50.4265C179.419 50.0005 178.885 49.7834 178.141 49.7834C177.707 49.7834 177.331 49.8752 177.006 50.0506C176.672 50.226 176.421 50.4933 176.221 50.8107C176.104 51.0111 176.02 51.2449 175.97 51.5205C175.92 51.7878 175.895 52.2388 175.895 52.8986V56.5817H174.984V52.339C174.984 51.4705 174.801 50.8273 174.45 50.4181C174.099 49.9922 173.556 49.7917 172.83 49.7917C172.387 49.7917 172.003 49.8836 171.669 50.059C171.335 50.2344 171.076 50.5016 170.884 50.819C170.767 51.0195 170.683 51.2533 170.625 51.5289C170.583 51.7961 170.558 52.2472 170.558 52.9069V56.59H169.598V49.0234H170.558V49.8753C170.842 49.5495 171.185 49.299 171.577 49.1319C171.97 48.9649 172.421 48.873 172.913 48.873C173.49 48.873 174.007 48.99 174.483 49.2322C174.96 49.466 175.319 49.7918 175.561 50.201" fill="white"/>
<path d="M188.389 50.201C188.698 49.7667 189.083 49.4409 189.542 49.2154C189.993 48.9899 190.511 48.873 191.07 48.873C192.097 48.873 192.849 49.1737 193.309 49.7917C193.776 50.4014 194.01 51.4036 194.01 52.7649V56.5817H193.083V52.5645C193.083 51.5706 192.916 50.8524 192.59 50.4265C192.256 50.0005 191.722 49.7834 190.978 49.7834C190.544 49.7834 190.168 49.8752 189.834 50.0506C189.508 50.226 189.25 50.4933 189.049 50.8107C188.932 51.0111 188.857 51.2449 188.798 51.5205C188.757 51.7878 188.732 52.2388 188.732 52.8986V56.5817H187.813V52.339C187.813 51.4705 187.638 50.8273 187.287 50.4181C186.936 49.9922 186.393 49.7917 185.658 49.7917C185.216 49.7917 184.831 49.8836 184.506 50.059C184.172 50.2344 183.905 50.5016 183.721 50.819C183.604 51.0195 183.52 51.2533 183.47 51.5289C183.42 51.7961 183.395 52.2472 183.395 52.9069V56.59H182.435V49.0234H183.395V49.8753C183.687 49.5495 184.021 49.299 184.422 49.1319C184.815 48.9649 185.257 48.873 185.75 48.873C186.318 48.873 186.844 48.99 187.32 49.2322C187.796 49.466 188.155 49.7918 188.398 50.201" fill="white"/>
<path d="M195.262 49.0244H196.214V53.0416C196.214 54.0772 196.381 54.8038 196.715 55.2381C197.049 55.664 197.6 55.8812 198.369 55.8812C198.803 55.8812 199.187 55.7893 199.513 55.6223C199.847 55.4386 200.122 55.188 200.315 54.8539C200.431 54.6535 200.507 54.4196 200.565 54.1524C200.615 53.8851 200.64 53.4174 200.64 52.7493V49.0328H201.617V56.5994H200.64V55.7893C200.348 56.1485 200.022 56.4074 199.663 56.5577C199.304 56.7247 198.861 56.7999 198.352 56.7999C197.258 56.7999 196.473 56.5076 195.988 55.9229C195.504 55.33 195.27 54.3528 195.27 52.9831V49.0328L195.262 49.0244Z" fill="white"/>
<path d="M202.871 49.0238H203.823V49.8757C204.115 49.5333 204.466 49.2827 204.859 49.124C205.251 48.957 205.694 48.8818 206.203 48.8818C206.763 48.8818 207.256 48.982 207.69 49.1825C208.124 49.3996 208.467 49.6919 208.717 50.0761C208.893 50.3517 209.018 50.6608 209.093 51.0282C209.168 51.3957 209.202 51.9386 209.202 52.6485V56.5988H208.25V52.3561C208.25 51.4625 208.074 50.8111 207.732 50.4102C207.389 50.001 206.838 49.8005 206.095 49.8005C205.652 49.8005 205.268 49.8924 204.934 50.0678C204.6 50.2432 204.341 50.5104 204.149 50.8278C204.024 51.0282 203.94 51.2621 203.898 51.5377C203.848 51.8049 203.831 52.2559 203.831 52.9157V56.5988H202.879V49.0322L202.871 49.0238Z" fill="white"/>
<path d="M211.441 48.1389H210.472V46.5771H211.441V48.1389ZM210.472 49.0242H211.441V56.5909H210.472V49.0242Z" fill="white"/>
<path d="M218.781 51.3441C218.48 50.7929 218.121 50.392 217.687 50.1163C217.261 49.8491 216.743 49.7238 216.159 49.7238C215.373 49.7238 214.722 50.0162 214.171 50.6175C213.628 51.2104 213.352 51.9454 213.352 52.8056C213.352 53.6659 213.628 54.4008 214.171 54.9938C214.722 55.57 215.39 55.8623 216.192 55.8623C216.785 55.8623 217.303 55.712 217.745 55.4364C218.196 55.1441 218.539 54.7349 218.773 54.2087H219.85C219.549 55.0355 219.09 55.6702 218.464 56.1212C217.837 56.5639 217.094 56.7977 216.242 56.7977C215.148 56.7977 214.221 56.3969 213.461 55.6285C212.709 54.8518 212.325 53.9164 212.325 52.8139C212.325 51.7115 212.709 50.7511 213.469 49.9744C214.238 49.1977 215.165 48.8135 216.267 48.8135C217.086 48.8135 217.812 49.0306 218.439 49.4732C219.065 49.9159 219.533 50.5423 219.842 51.3441H218.764H218.781Z" fill="white"/>
<path d="M227.374 55.3953C227.074 55.8296 226.664 56.172 226.147 56.4226C225.629 56.6731 225.069 56.79 224.476 56.79C223.365 56.79 222.447 56.4142 221.704 55.6459C220.96 54.8942 220.593 53.9505 220.593 52.8397C220.593 51.7289 220.969 50.7601 221.729 50.0001C222.48 49.2401 223.424 48.8643 224.56 48.8643C225.144 48.8643 225.671 48.9728 226.163 49.215C226.656 49.4489 227.057 49.7913 227.374 50.234V49.0229H228.326V56.5896H227.374V55.3953ZM227.374 52.7562C227.374 51.9544 227.09 51.2529 226.514 50.6515C225.946 50.0586 225.278 49.7495 224.535 49.7495C223.725 49.7495 223.031 50.0586 222.464 50.6515C221.887 51.2529 221.603 51.9962 221.603 52.8814C221.603 53.7166 221.887 54.4349 222.455 55.0195C223.023 55.6041 223.7 55.8881 224.51 55.8881C225.32 55.8881 225.946 55.579 226.514 54.9694C227.09 54.3513 227.374 53.6164 227.374 52.7562Z" fill="white"/>
<path d="M230.231 56.5909V49.993H228.795V49.0242H230.231V46.5771H231.208V49.0242H232.645V49.993H231.208V56.5909H230.231Z" fill="white"/>
<path d="M234.124 48.1389H233.155V46.5771H234.124V48.1389ZM233.155 49.0242H234.124V56.5909H233.155V49.0242Z" fill="white"/>
<path d="M234.992 52.8068C234.992 51.696 235.376 50.7522 236.145 49.9588C236.896 49.1738 237.807 48.7812 238.842 48.7812C239.936 48.7812 240.872 49.1738 241.648 49.9422C242.417 50.7272 242.801 51.6542 242.801 52.7149C242.801 53.8424 242.425 54.8112 241.665 55.6046C240.905 56.4064 239.986 56.8072 238.917 56.8072C237.848 56.8072 236.896 56.4147 236.136 55.6213C235.376 54.8446 234.992 53.9009 234.992 52.8068ZM236.019 52.7901C236.019 53.6586 236.295 54.3936 236.846 54.9782C237.406 55.5628 238.091 55.8635 238.917 55.8635C239.744 55.8635 240.412 55.5712 240.955 54.9782C241.506 54.3852 241.782 53.6586 241.782 52.7733C241.782 51.8881 241.507 51.1532 240.947 50.5685C240.388 49.9923 239.686 49.7083 238.826 49.7083C238.057 49.7083 237.397 50.0006 236.846 50.6019C236.295 51.1949 236.019 51.9215 236.019 52.7901Z" fill="white"/>
<path d="M243.669 49.0238H244.613V49.8757C244.905 49.5333 245.256 49.2827 245.648 49.124C246.041 48.957 246.492 48.8818 246.993 48.8818C247.544 48.8818 248.037 48.982 248.471 49.1825C248.905 49.3996 249.248 49.6919 249.499 50.0761C249.674 50.3517 249.808 50.6608 249.874 51.0282C249.95 51.3957 249.991 51.9386 249.991 52.6485V56.5988H249.039V52.3561C249.039 51.4625 248.872 50.8111 248.53 50.4102C248.179 50.001 247.636 49.8005 246.884 49.8005C246.442 49.8005 246.058 49.8924 245.724 50.0678C245.39 50.2432 245.131 50.5104 244.938 50.8278C244.821 51.0282 244.73 51.2621 244.688 51.5377C244.638 51.8049 244.621 52.2559 244.621 52.9157V56.5988H243.677V49.0322L243.669 49.0238Z" fill="white"/>
<path d="M93.0623 23.8187C93.0455 24.6122 92.9452 25.4223 92.7699 26.2574C92.5945 27.0926 92.3272 27.6271 91.9598 27.8526C91.5923 28.0698 90.8407 28.1867 89.6965 28.1867C88.9114 28.1867 88.3435 28.17 87.9843 28.1366C87.6252 28.0948 87.3412 27.9612 87.1324 27.7273C86.9237 27.4935 86.8235 27.1928 86.8235 26.8337V19.5594H83.608C83.5078 21.8144 83.107 23.635 82.3971 24.9963C81.6872 26.3576 80.4009 27.5185 78.5468 28.4957L77.9121 27.694C79.215 27.1177 80.3176 26.2574 81.2112 25.1133C82.1048 23.9858 82.5809 22.1317 82.6393 19.5594H78.2296V18.6156H92.8785V19.5594H87.7923V26.7418C87.7923 26.9506 87.9007 27.0926 88.1179 27.1762C88.335 27.2513 88.7277 27.293 89.304 27.293C90.4315 27.293 91.0662 27.268 91.2082 27.2095C91.3418 27.1511 91.4838 27.0592 91.6174 26.9256C91.751 26.7919 91.8679 26.3577 91.9848 25.6311C92.0934 24.9045 92.1518 24.1862 92.1518 23.4763L93.079 23.8271L93.0623 23.8187ZM91.5087 14.4314H79.5325V13.5127H91.5087V14.4314Z" fill="white"/>
<path d="M103.661 17.6967H100.103C100.07 17.8638 100.012 18.0225 99.9281 18.1895C101.323 18.8743 102.542 19.6009 103.594 20.3693L103.027 21.0708C101.941 20.2524 100.788 19.5341 99.569 18.9244C98.7172 20.2357 97.5145 21.146 95.9777 21.6721L95.3096 20.9539C97.2889 20.2941 98.5668 19.2167 99.1347 17.7051H95.7439V16.8699H99.3853C99.4939 16.469 99.5689 15.9011 99.619 15.1578H97.79C97.3557 15.6422 96.9048 16.0765 96.4288 16.4356L95.6937 15.8761C96.8296 15.0075 97.6815 14.0637 98.2745 13.0615L99.118 13.3622C98.809 13.8716 98.6002 14.189 98.4833 14.3143H103.244V15.1662H100.521C100.463 15.7842 100.396 16.3605 100.312 16.8783H103.661V17.7134V17.6967ZM108.681 28.3869H107.77V27.3012H98.1825V28.4036H97.2807V21.5385H108.681V28.3869ZM107.77 22.4155H98.1825V24.019H107.77V22.4155ZM107.77 24.8792H98.1825V26.4494H107.77V24.8792ZM110.142 19.9768H104.388V14.3226H110.142V19.9768ZM109.232 15.1828H105.298V19.1082H109.232V15.1828Z" fill="white"/>
<path d="M128.057 27.6922L127.439 28.4689C125.568 27.2746 124.073 25.8883 122.946 24.3098C121.827 22.7397 120.991 20.7854 120.44 18.4552C119.73 22.5392 117.358 25.8548 113.308 28.4105L112.715 27.617C113.742 26.9656 114.727 26.1806 115.688 25.2702C116.64 24.3599 117.425 23.3995 118.052 22.3806C118.67 21.37 119.154 19.9752 119.496 18.213H113.024V17.311H119.663C119.839 15.8746 119.947 14.4631 119.964 13.0684H120.958C120.908 14.5884 120.791 15.9998 120.624 17.311H127.765V18.213H121.3C121.918 20.7018 122.787 22.6561 123.881 24.0676C124.983 25.479 126.361 26.6817 128.04 27.6922" fill="white"/>
<path d="M145.37 25.4882H138.254V27.2337C138.254 27.5678 138.146 27.8267 137.937 28.0104C137.72 28.1942 137.47 28.286 137.169 28.286L135.106 28.3027L134.805 27.4342C135.139 27.4592 135.482 27.4676 135.807 27.4676C136.592 27.4676 137.052 27.4342 137.185 27.3673C137.319 27.3005 137.378 27.1502 137.378 26.9498V25.5049H130.229V24.6948H137.378V23.9933C138.48 23.6091 139.415 23.2332 140.209 22.8574H133.193V22.0473H142.071V22.8574C140.885 23.4671 139.607 24.0183 138.254 24.5361V24.7031H145.37V25.5133V25.4882ZM145.003 23.133H144.092V20.9365H131.49V23.133H130.604V20.1264H131.515L131.448 13.8375C132.592 13.6956 133.678 13.4116 134.705 13.0024L135.106 13.6956C134.312 14.0547 133.377 14.3303 132.308 14.5224V15.7668H135.114V16.5686H132.325L132.342 17.9132H135.106V18.7316H132.383L132.408 20.1348H143.098L143.115 18.7316H140.359V17.9132H143.14L143.157 16.5686H140.367V15.7668H143.19L143.224 14.5057H140.209V13.6956H144.109L143.959 20.1264H145.011V23.133H145.003ZM140.059 19.1326L139.49 19.6921C139.332 19.5334 138.822 19.1075 137.954 18.4226C137.085 19.0156 136.384 19.4249 135.849 19.6504L135.415 18.9404C135.724 18.8152 136.35 18.4727 137.311 17.8965C137.11 17.7211 136.868 17.529 136.567 17.3369C136.275 17.1448 136.058 16.9945 135.933 16.9026L136.451 16.3598C137.294 16.9361 137.795 17.2952 137.954 17.4205C138.605 16.9194 138.981 16.5769 139.09 16.4099L139.741 16.8609C139.641 17.0028 139.257 17.3703 138.597 17.9466C138.839 18.122 139.332 18.5062 140.059 19.1242M140.008 15.7919L139.432 16.293C138.998 15.8754 138.505 15.4745 137.954 15.0987C137.378 15.4828 136.718 15.8587 135.958 16.2095L135.582 15.5079C136.1 15.2907 136.676 14.9817 137.311 14.5641C136.902 14.205 136.484 13.8877 136.05 13.6121L136.626 13.1026C137.319 13.6037 137.762 13.9378 137.954 14.1048C138.48 13.6789 138.889 13.2863 139.173 12.9355L139.841 13.2864C139.616 13.6121 139.198 14.0547 138.58 14.6143C138.789 14.7312 139.265 15.1321 140.008 15.7919Z" fill="white"/>
<path d="M160.31 25.932H153.395L153.829 26.4999C152.025 27.4019 150.121 28.07 148.108 28.4959L147.657 27.6691C149.528 27.3601 151.299 26.7755 152.977 25.932H150.271V19.5513H160.319V25.932H160.31ZM152.66 17.8976H147.783V17.0207H152.66V17.8976ZM152.518 14.7574H148.125V13.9222H152.518V14.7574ZM159.408 20.3697H151.198V21.3636H159.408V20.3697ZM159.408 22.1486H151.198V23.2343H159.408V22.1486ZM159.408 24.0194H151.198V25.1135H159.408V24.0194ZM162.924 18.4488L162.54 19.3007C160.31 18.9666 158.581 18.2901 157.337 17.2629C156.335 18.2233 155.007 18.8831 153.345 19.2422L152.877 18.4071C155.015 18.0814 156.493 17.2128 157.304 15.8013L158.256 15.9683C158.222 16.1103 158.088 16.3358 157.855 16.6448C159.032 17.6136 160.719 18.2066 162.933 18.4405M162.565 15.2501C161.981 16.0853 161.429 16.745 160.928 17.2211L160.26 16.5864C160.711 16.1354 161.137 15.6426 161.53 15.1081H155.149C154.681 15.7011 154.147 16.2273 153.562 16.6699L152.961 16.0685C153.955 15.3169 154.798 14.2813 155.491 12.9951L156.343 13.2875L155.792 14.2562H162.573V15.2501H162.565ZM162.832 27.7025L162.415 28.5043C160.711 27.8612 159.032 27.3768 157.354 27.0427L157.788 26.2577C159.6 26.6335 161.287 27.1179 162.832 27.7108" fill="white"/>
<path d="M170.842 15.7841H165.055V14.9322H167.761C167.602 14.498 167.351 13.9718 167.001 13.3621L167.794 12.9863C168.136 13.596 168.437 14.2558 168.696 14.9406H170.842V15.7925V15.7841ZM170.341 18.3398H165.472V17.4795H170.341V18.3398ZM170.291 20.8286H165.472V20.0101H170.291V20.8286ZM170.291 28.1196H169.364V27.0673H166.541V28.3869H165.623V22.549H170.291V28.1196ZM169.364 23.4093H166.541V26.2322H169.364V23.4093ZM180.764 24.4532C180.631 25.564 180.422 26.4827 180.113 27.2093C179.804 27.9359 179.453 28.295 179.061 28.295C178.451 28.295 178.042 27.6853 177.816 26.4743C177.591 25.255 177.482 24.2444 177.482 23.4427V14.4645H173.999V19.9433H176.755V20.7785H173.999V28.437H173.089V20.7785H171.076V19.9433H173.089V14.4645H171.21V13.6294H178.376V22.833C178.376 24.3363 178.468 25.4554 178.643 26.2154C178.818 26.9671 178.952 27.3429 179.035 27.3429C179.119 27.3429 179.261 26.9755 179.478 26.2405C179.695 25.4972 179.837 24.7455 179.912 23.9605L180.764 24.4616V24.4532Z" fill="white"/>
<path d="M186.1 13.3033C185.983 13.8379 185.8 14.4893 185.558 15.266L185.198 16.3685V28.3949H184.271V18.8072C183.912 19.5839 183.47 20.419 182.927 21.3043L182.442 20.3606C183.578 18.4313 184.497 15.9926 185.198 13.0361L186.1 13.295V13.3033ZM197.784 25.1962H195.262V26.9584C195.262 27.376 195.145 27.7184 194.92 27.9857C194.694 28.2613 194.16 28.4033 193.333 28.4033C192.932 28.4033 192.606 28.3782 192.331 28.3448L191.846 27.493C192.373 27.5431 192.823 27.5681 193.216 27.5681C193.7 27.5681 194.01 27.5347 194.126 27.4762C194.243 27.4178 194.302 27.3259 194.302 27.1923V25.1879H185.984V24.4028H194.302V23.3755H195.254V24.4028H197.776V25.1879L197.784 25.1962ZM197.835 23.1918L197.233 23.7514C197.058 23.5175 196.824 23.2169 196.532 22.8744L186.334 23.4173L186.192 22.6323L191.245 22.3734V21.1791H187.053V16.3517H191.245V15.1575H186.368V14.3557H191.245V13.0444H192.155V14.3557H197.333V15.1575H192.155V16.3517H196.532V21.1791H195.914C196.765 21.9391 197.409 22.6155 197.835 23.1918ZM191.329 27.1255L190.677 27.802C189.541 27.0921 188.514 26.5325 187.595 26.1316L188.23 25.4551C189.274 25.9228 190.318 26.4824 191.329 27.1255ZM191.245 17.1201H187.963V18.3562H191.245V17.1201ZM191.245 19.1078H187.963V20.3773H191.245V19.1078ZM195.621 17.1201H192.155V18.3562H195.621V17.1201ZM195.621 19.1078H192.155V20.3773H195.621V19.1078ZM195.73 22.1228C195.454 21.8305 195.195 21.6133 194.953 21.4296L195.271 21.1707H192.155V22.3065C193.316 22.223 194.502 22.1562 195.73 22.1228Z" fill="white"/>
<path d="M204.433 17.0695H202.879V20.1346C203.172 19.9509 203.598 19.6669 204.14 19.2493L204.274 20.2348C203.932 20.5021 203.472 20.8361 202.879 21.2287V26.9997C202.879 27.3839 202.762 27.7013 202.537 27.9518C202.311 28.194 201.91 28.3193 201.343 28.3193H200.482L200.182 27.4173H201.518C201.844 27.4173 202.011 27.2586 202.011 26.9663V21.7465C201.643 21.9636 201.034 22.3144 200.182 22.7904L199.864 21.9218C200.349 21.7047 201.067 21.2955 202.011 20.7109V17.0695H199.931V16.2176H202.011V13.1108H202.879V16.2176H204.433V17.0695ZM215.156 20.8612L214.705 21.6463C213.444 20.8194 211.958 20.0928 210.237 19.4915V21.7381H213.812V28.361H212.893V27.5843H206.771V28.361H205.861V21.7381H209.352V18.7983C208.032 20.0344 206.604 20.9948 205.067 21.6713L204.541 20.9029C206.312 20.1513 207.69 19.2827 208.65 18.2972H204.992V17.4119H209.352V14.6642C208.341 14.7226 207.089 14.7477 205.569 14.7477L205.343 13.8374C207.531 13.8541 209.243 13.8123 210.454 13.7121C211.674 13.6203 212.843 13.3947 213.962 13.0439L214.38 13.8541C213.269 14.1548 211.891 14.3969 210.237 14.5807V17.4036H214.989V18.2889H210.237V18.5979C212.292 19.3495 213.929 20.1012 215.165 20.8445M207.974 16.6603L207.172 17.0946C206.888 16.6018 206.512 16.1091 206.028 15.5913L206.78 15.1987C207.272 15.633 207.681 16.1174 207.982 16.6603M209.36 22.5983H206.78V24.1768H209.36V22.5983ZM209.36 25.012H206.78V26.7074H209.36V25.012ZM212.901 22.5983H210.246V24.1768H212.901V22.5983ZM212.901 25.012H210.246V26.7074H212.901V25.012ZM213.853 15.2488C213.478 15.8585 212.993 16.4598 212.375 17.0445L211.632 16.4682C212.217 15.9253 212.726 15.349 213.144 14.7811L213.853 15.2488Z" fill="white"/>
<path d="M232.554 25.4882H225.438V27.2337C225.438 27.5678 225.338 27.8267 225.121 28.0104C224.912 28.1942 224.653 28.286 224.361 28.286L222.298 28.3027L221.997 27.4342C222.331 27.4592 222.665 27.4676 222.999 27.4676C223.793 27.4676 224.252 27.4342 224.386 27.3673C224.519 27.3005 224.578 27.1502 224.578 26.9498V25.5049H217.429V24.6948H224.578V23.9933C225.68 23.6091 226.616 23.2332 227.401 22.8574H220.385V22.0473H229.263V22.8574C228.077 23.4671 226.799 24.0183 225.438 24.5361V24.7031H232.554V25.5133V25.4882ZM232.186 23.133H231.276V20.9365H218.681V23.133H217.796V20.1264H218.707L218.64 13.8375C219.784 13.6956 220.87 13.4116 221.897 13.0024L222.298 13.6956C221.504 14.0547 220.577 14.3303 219.508 14.5224V15.7668H222.315V16.5686H219.525L219.542 17.9132H222.298V18.7316H219.575L219.592 20.1348H230.282L230.299 18.7316H227.543V17.9132H230.324L230.34 16.5686H227.543V15.7668H230.366L230.399 14.5057H227.384V13.6956H231.284L231.134 20.1264H232.178V23.133H232.186ZM227.25 19.1326L226.682 19.6921C226.524 19.5334 226.014 19.1075 225.154 18.4226C224.285 19.0156 223.584 19.4249 223.041 19.6504L222.607 18.9404C222.916 18.8152 223.551 18.4727 224.511 17.8965C224.311 17.7211 224.06 17.529 223.768 17.3369C223.475 17.1448 223.258 16.9945 223.133 16.9026L223.651 16.3598C224.494 16.9361 225.004 17.2952 225.162 17.4205C225.805 16.9194 226.181 16.5769 226.29 16.4099L226.95 16.8609C226.85 17.0028 226.465 17.3703 225.806 17.9466C226.048 18.122 226.54 18.5062 227.267 19.1242M227.217 15.7919L226.649 16.293C226.215 15.8754 225.722 15.4745 225.171 15.0987C224.595 15.4828 223.935 15.8587 223.175 16.2095L222.799 15.5079C223.317 15.2907 223.893 14.9817 224.528 14.5641C224.118 14.205 223.701 13.8877 223.267 13.6121L223.843 13.1026C224.536 13.6037 224.979 13.9378 225.171 14.1048C225.697 13.6789 226.098 13.2863 226.382 12.9355L227.05 13.2864C226.824 13.6121 226.407 14.0547 225.789 14.6143C225.998 14.7312 226.474 15.1321 227.217 15.7919Z" fill="white"/>
<path d="M240.362 24.6195C239.051 25.7303 237.397 26.6322 235.401 27.3421L234.825 26.5737C237.089 25.7302 238.692 24.8951 239.636 24.0265L240.371 24.6195H240.362ZM249.574 23.2748L248.789 23.8093C248.522 23.3917 248.18 22.9491 247.762 22.448C245.507 22.6902 243.937 22.8405 243.068 22.9157V27.3338C243.068 27.5927 242.985 27.8014 242.818 27.9768C242.642 28.1522 242.459 28.2692 242.241 28.3109C242.033 28.361 241.649 28.3777 241.081 28.3777C240.763 28.3777 240.463 28.3777 240.195 28.3527L239.811 27.4256C240.137 27.4507 240.471 27.459 240.822 27.459C241.415 27.459 241.782 27.4423 241.924 27.4173C242.058 27.3922 242.133 27.2586 242.133 27.0164V23.0076C239.577 23.1663 237.656 23.2665 236.362 23.3082L236.086 22.5399C238.216 21.7631 240.312 20.8361 242.367 19.742C240.346 19.859 238.558 19.9425 236.972 19.9842L236.746 19.3495C239.377 18.3891 241.481 17.1864 243.06 15.7332L243.928 16.2343C242.726 17.2783 241.281 18.2137 239.586 19.0405C240.145 19.0238 240.696 18.9988 241.214 18.9737C241.732 18.9486 242.242 18.9153 242.743 18.8818C243.703 18.7983 244.229 18.7232 244.338 18.6647C245.089 18.197 245.808 17.6875 246.509 17.1447L247.319 17.7042C245.44 19.1407 242.642 20.6942 238.901 22.3645C241.715 22.2559 244.438 22.0388 247.06 21.6964C246.793 21.3874 246.351 20.9614 245.733 20.4269L246.509 19.9007C247.82 21.0867 248.839 22.2058 249.566 23.2832M244.246 13.5534C242.626 15.0317 240.179 16.1842 236.921 17.0361L236.228 16.2343C239.469 15.5328 241.874 14.4637 243.461 13.0439L244.246 13.5534ZM250 26.6322L249.407 27.3839C248.146 26.3483 246.685 25.4379 245.006 24.6612L245.599 23.9263C247.269 24.728 248.731 25.6217 249.992 26.6322" fill="white"/>
</svg>
