<svg width="241" height="59" viewBox="0 0 241 59" fill="none" xmlns="http://www.w3.org/2000/svg">
<g clip-path="url(#clip0_1699_4354)">
<path d="M54.664 29.4268H49.7803V34.3104H54.664V29.4268Z" fill="white"/>
<path d="M25.3739 48.9502H20.4902V53.8339H25.3739V48.9502Z" fill="white"/>
<path d="M5.82783 5.03223H0.989258V9.8708H5.82783V5.03223Z" fill="white"/>
<path d="M30.2565 24.5546H20.5117V29.427H30.2565V58.7179H35.1064V0.147461H30.2565V24.5546Z" fill="white"/>
<path d="M49.7693 48.9496H44.8969V19.6701H54.6417V14.7977H44.8969V5.03027H40.0132V48.9496H40.002V52.0174C40.002 53.01 40.8027 53.8108 41.7953 53.8108H52.8371C53.8297 53.8108 54.6305 53.01 54.6305 52.0174V48.9609H54.6417V39.1823H49.7581V48.9384L49.7693 48.9496Z" fill="white"/>
<path d="M5.87295 29.4268H0.989258V48.9502H5.87295V29.4268Z" fill="white"/>
<path d="M15.6065 19.6701H25.3739V14.7864H15.6065V5.03027H10.7341V19.6701H5.83911V14.7864H0.989258V22.7492C0.989258 23.753 1.79005 24.5537 2.78258 24.5537H10.7341V58.717H15.6065V39.1935H20.5015V44.0772H25.3739V35.4039C25.3739 34.8061 24.8889 34.3324 24.2911 34.3324H15.6065V19.6926V19.6701Z" fill="white"/>
<path d="M80.3226 40.0072H77.9653V28.627C77.2773 30.8489 76.2961 33.2513 75.7773 34.131L73.9727 32.5407C75.6983 30.0256 77.1984 25.5366 77.83 22.2884H74.6607V20.0213H77.9653V15.0474H80.3226V20.0213H82.7249V22.2884H80.3226V23.0553C81.0331 24.014 83.0859 26.9352 83.5483 27.5894L82.0482 29.4278C81.7211 28.6383 81.0106 27.2623 80.3226 26.1457V40.0072ZM87.3831 26.1908V15.07H89.5937V26.0667C89.5937 30.9617 88.7478 37.2327 83.5483 40.2102L82.3979 38.2477C85.601 36.7477 86.7515 33.2738 87.1575 30.3752C86.0071 31.3564 84.7213 32.5633 83.6611 33.4994L82.4543 30.9843C83.4355 30.4654 84.913 29.4278 86.3905 28.3901L86.6387 28.1984C86.8868 28.0405 87.1349 27.8713 87.3492 27.6796C87.3718 27.2172 87.3718 26.6983 87.3718 26.2246L87.3831 26.1908ZM87.3831 24.4088L85.3867 25.2547C85.0822 23.7546 84.1235 21.3184 83.2776 19.6266L85.0822 18.8822C85.9845 20.5289 86.9996 22.9876 87.3831 24.4088ZM95.9211 39.6463H94.827C92.2555 39.6463 91.5787 38.6876 91.5787 36.0033V15.0361H93.9022V27.454L94.6353 26.8562C96.1466 28.1984 98.2783 30.3301 99.1806 31.5369L97.6241 33.0934C97.1053 32.3603 96.1466 31.2888 95.1315 30.2173L94.9398 30.003L94.7255 29.7887C94.4548 29.4842 94.1729 29.1909 93.9022 28.909V36.0484C93.9022 37.1086 94.0375 37.4695 95.0752 37.4695H95.9211C96.9361 37.4695 97.094 36.5108 97.1279 34.4581H99.237C99.237 38.4846 98.3121 39.6576 95.9323 39.6576L95.9211 39.6463ZM95.7519 25.0968L94.0037 24.2734C94.7932 22.8523 96 20.3597 96.5188 18.7017L98.7859 19.604C97.861 21.4312 96.5978 23.7095 95.7519 25.0968Z" fill="white"/>
<path d="M133.288 39.1843H111.271V16.0742H133.288V39.1843ZM130.885 36.8835V18.2961H113.595V36.8948H130.885V36.8835ZM122.922 35.7894H120.734V32.293C119.144 33.3307 117.351 34.3683 115.4 35.1127L114.554 33.3307C116.55 32.6991 119.02 31.3569 120.734 30.0486H116.415V25.4807H128.257V29.5861L129.577 30.4095C128.652 31.2328 127.445 31.9998 126.486 32.5412C127.637 33.1728 129.002 33.8044 129.904 34.0412L129.216 35.733C126.78 34.9999 124.535 33.466 122.922 31.9095V35.7894ZM129.656 24.3528H114.824V22.8978H121.061V21.4767H116.245V20.0556H121.061V18.7134H123.306V20.0556H128.393V21.4767H123.306V22.8978H129.656V24.3528ZM126.069 28.7289V26.7777H118.467V28.7289H126.069ZM125.325 31.7404C126.013 31.2215 126.633 30.5674 127.265 30.0486H123.486C123.949 30.5674 124.637 31.2215 125.314 31.7404H125.325Z" fill="white"/>
<path d="M159.058 40.0629H156.487V26.6074H151.175V36.589H148.716V24.2276H156.487V20.8665H145.986V18.5092H156.487V14.8662H159.115V18.5092H169.784V20.8665H159.07V24.2276H167.36V33.6115C167.36 34.8747 167.032 35.7206 166.096 36.104C165.115 36.4875 163.333 36.5326 160.931 36.5326V34.1077C162.104 34.1867 163.75 34.1867 164.179 34.1641C164.619 34.1416 164.811 33.9498 164.811 33.5889V26.6186H159.07V40.0742L159.058 40.0629Z" fill="white"/>
<path d="M193.28 40.1535L192.05 37.7963C194.317 36.7586 196.178 34.8751 197.554 32.9577C196.708 31.4012 196.099 29.3485 195.58 27.3522L195.524 27.0815C195.501 26.9461 195.434 26.8108 195.411 26.6754L195.355 26.4047C195.298 26.2694 195.276 26.1341 195.242 25.9987C194.802 26.7882 194.317 27.5326 193.855 28.1868C193.55 27.8371 192.862 27.2055 192.343 26.7995H189.58V33.2284L193.55 32.3261L193.798 34.5367C192.569 34.8074 191.283 35.1458 190.02 35.4728L189.715 35.5292C189.636 35.5631 189.524 35.5856 189.445 35.6082L189.14 35.6871C188.734 35.7661 188.294 35.8789 187.877 35.9917L187.606 36.0706C185.305 36.6458 183.151 37.1872 181.482 37.5481L181.02 35.033L182.576 34.6721V22.8068H184.82V34.2886L187.144 33.7134V19.1074H181.595V16.7502H193.595V19.1074H189.58V24.4648H192.693V25.2882C193.787 23.6527 194.61 21.3744 195.231 18.9721L195.287 18.7014C195.592 17.472 195.862 16.2426 196.077 15.002L198.49 15.4418C198.434 15.7351 198.378 16.0396 198.321 16.3441L198.265 16.6148C198.242 16.7502 198.242 16.8855 198.208 17.0208L198.152 17.2915C198.096 17.5171 198.073 17.7314 198.017 17.9457L197.994 18.1938C197.881 18.769 197.768 19.3217 197.633 19.8631H205.562V22.1639H203.814C203.16 26.2356 201.93 30.2846 200.34 33.0141C201.66 34.954 203.712 36.8714 205.596 37.7737L204.254 40.0971C202.088 38.9467 200.182 37.0631 198.862 35.2811C197.441 37.0293 195.614 38.9241 193.257 40.1535H193.28ZM197.08 24.3746L197.159 24.6453C197.182 24.8708 197.238 25.0851 197.295 25.3333L197.374 25.604C197.814 27.3522 198.332 29.0778 198.987 30.4764C200.058 28.3221 200.848 25.2318 201.31 22.1639H196.686L196.72 22.6264C196.821 23.2016 196.934 23.7768 197.069 24.3746H197.08Z" fill="white"/>
<path d="M218.611 40.1191C218.182 39.6567 217.055 38.9123 216.502 38.698C218.442 35.055 218.803 28.9419 218.825 25.2199V17.8324H228.48V15.0127H231.052V17.8324H240.875V20.0994H221.239V25.8967C221.239 26.6636 221.205 27.5095 221.183 28.2426C223.371 26.3027 225.175 22.9416 226.078 20.449L228.536 21.137C227.984 22.389 227.465 23.8439 226.698 25.1072V39.9612H224.397V28.3329C223.687 29.1562 222.841 30.0585 222.074 30.6563C221.859 30.3518 221.442 29.8668 221.115 29.4833C220.889 32.8218 220.077 37.4122 218.589 40.1191H218.611ZM231.717 40.0627V37.7055C231.965 37.7055 232.236 37.7393 232.506 37.7393H232.811C233.634 37.7619 234.424 37.7619 234.807 37.7619H234.92C235.36 37.7619 235.574 37.4912 235.574 37.0739V26.6862H228.299V24.4417H235.574V20.7987H237.988V24.4417H240.999V26.6862H237.988V37.1077C237.988 38.4499 237.627 39.4875 236.759 39.871C235.856 40.1981 234.131 40.0627 231.728 40.0627H231.717ZM231.525 34.5362C231.063 33.1714 229.833 30.7691 228.739 29.2013L230.713 28.4118C231.864 29.9119 232.901 32.2128 233.397 33.5775L231.536 34.5362H231.525Z" fill="white"/>
<path d="M76.769 58.4815V52.4474H74.7275V51.7256H79.6789V52.4474H77.6262V58.4815H76.769Z" fill="white"/>
<path d="M86.4686 58.4815L85.8144 56.4175H83.3444L82.6902 58.4815H81.833L84.1226 51.7256H85.0813L87.3709 58.4815H86.4686ZM83.5699 55.7408H85.6114L85.2843 54.7032C85.1377 54.2633 84.9121 53.5076 84.5963 52.4136H84.5625C84.3482 53.1805 84.1339 53.9362 83.8857 54.7032L83.5587 55.7408H83.5699Z" fill="white"/>
<path d="M92.6598 58.5939C91.7462 58.5939 91.0244 58.2443 90.4943 57.545C90.0093 56.9021 89.7725 56.0788 89.7725 55.075C89.7725 53.8569 90.1108 52.932 90.7988 52.2891C91.3064 51.8267 91.9267 51.5898 92.6598 51.5898C93.5959 51.5898 94.3178 51.9508 94.8479 52.6613C95.3103 53.2929 95.5472 54.0937 95.5472 55.075C95.5472 56.2818 95.2088 57.2179 94.5434 57.8721C94.0245 58.3571 93.4155 58.6052 92.6711 58.6052L92.6598 58.5939ZM92.6598 57.8495C93.3591 57.8495 93.8779 57.5337 94.2501 56.8908C94.5321 56.3946 94.6674 55.7968 94.6674 55.075C94.6674 54.0148 94.3855 53.2478 93.8328 52.7628C93.5057 52.4809 93.111 52.3342 92.6598 52.3342C91.9493 52.3342 91.3966 52.6613 91.047 53.3155C90.7875 53.7892 90.6522 54.3757 90.6522 55.0637C90.6522 56.1126 90.9229 56.8796 91.4643 57.3758C91.8026 57.6804 92.1974 57.8383 92.6598 57.8383V57.8495Z" fill="white"/>
<path d="M99.9237 58.4815V55.8536L97.8936 51.7256H98.8071L99.6869 53.6317C99.7433 53.767 99.8335 53.9588 99.9463 54.2182C100.115 54.6129 100.251 54.9175 100.341 55.1092H100.375C100.657 54.5002 100.882 54.0152 101.052 53.6317L101.931 51.7256H102.822L100.792 55.8536V58.4815H99.935H99.9237Z" fill="white"/>
<path d="M107.966 58.5949C106.5 58.5949 105.688 57.7941 105.553 56.1812C105.542 56.0233 105.53 55.8541 105.53 55.685V51.7148H106.387V55.7075C106.387 57.1286 106.918 57.8392 107.955 57.8392C109.027 57.8279 109.557 57.1174 109.568 55.7075V51.7148H110.391V55.685C110.391 57.6136 109.568 58.5836 107.966 58.5949Z" fill="white"/>
<path d="M117.789 58.4815L117.135 56.4175H114.665L114.011 58.4815H113.143L115.443 51.7256H116.402L118.692 58.4815H117.789ZM114.891 55.7408H116.932L116.605 54.7032C116.459 54.2633 116.233 53.5076 115.917 52.4136H115.883C115.669 53.1805 115.455 53.9362 115.207 54.7032L114.88 55.7408H114.891Z" fill="white"/>
<path d="M121.479 58.4815V51.7256H122.37L124.828 55.9777L125.55 57.3762H125.595C125.528 56.2822 125.482 55.5716 125.482 55.2445V51.7256H126.295V58.4815H125.426L122.956 54.2182L122.223 52.8196H122.189C122.189 52.9662 122.212 53.1805 122.234 53.4851C122.279 54.128 122.302 54.6129 122.302 54.9287V58.4815H121.479Z" fill="white"/>
<path d="M136.434 58.5939C135.532 58.5939 134.81 58.2556 134.268 57.5788C133.75 56.9472 133.49 56.1126 133.49 55.0975C133.49 53.9133 133.829 52.9884 134.517 52.3455C135.058 51.838 135.712 51.5898 136.49 51.5898C137.178 51.5898 137.765 51.838 138.261 52.3342C138.295 52.3681 138.318 52.4019 138.34 52.4245L137.878 52.9771C137.472 52.5485 137.009 52.3342 136.49 52.323C135.746 52.323 135.182 52.65 134.787 53.2929C134.505 53.7779 134.359 54.3644 134.359 55.0637C134.359 56.1352 134.641 56.9134 135.227 57.4097C135.577 57.7029 135.983 57.8383 136.457 57.8383C137.043 57.8383 137.562 57.5788 138.024 57.0826L138.498 57.624C137.945 58.2668 137.257 58.5827 136.423 58.5827L136.434 58.5939Z" fill="white"/>
<path d="M141.6 58.4815V51.7256H142.457V58.4815H141.6Z" fill="white"/>
<path d="M147.554 58.4815V52.4474H145.513V51.7256H150.464V52.4474H148.411V58.4815H147.554Z" fill="white"/>
<path d="M154.604 58.4815V55.8536L152.585 51.7256H153.499L154.367 53.6317C154.423 53.767 154.514 53.9588 154.626 54.2182C154.796 54.6129 154.92 54.9175 155.021 55.1092H155.055C155.337 54.5002 155.574 54.0152 155.732 53.6317L156.6 51.7256H157.491L155.461 55.8536V58.4815H154.604Z" fill="white"/>
<path d="M166.797 58.5934C165.804 58.5934 165.037 58.2438 164.485 57.5332C164 56.9016 163.763 56.1008 163.763 55.1083C163.763 53.9127 164.112 52.9879 164.823 52.345C165.376 51.8487 166.052 51.6006 166.853 51.6006C167.631 51.6006 168.285 51.8826 168.804 52.4352L168.342 52.9879C167.925 52.5593 167.44 52.3337 166.887 52.3337C166.086 52.3337 165.488 52.6608 165.071 53.3262C164.789 53.7999 164.642 54.3864 164.642 55.0744C164.642 56.2249 164.97 57.0257 165.635 57.4881C165.985 57.7249 166.413 57.849 166.898 57.849C167.428 57.849 167.834 57.7137 168.128 57.4542V55.6948H166.695V54.9842H168.906V57.8152C168.488 58.2438 167.913 58.5032 167.191 58.5821C167.067 58.5934 166.943 58.6047 166.819 58.6047L166.797 58.5934Z" fill="white"/>
<path d="M174.827 58.5939C173.913 58.5939 173.191 58.2443 172.661 57.545C172.188 56.9021 171.939 56.0788 171.939 55.075C171.939 53.8569 172.278 52.932 172.966 52.2891C173.473 51.8267 174.094 51.5898 174.827 51.5898C175.763 51.5898 176.485 51.9508 177.015 52.6613C177.477 53.2929 177.714 54.0937 177.714 55.075C177.714 56.2818 177.376 57.2179 176.699 57.8721C176.192 58.3571 175.571 58.6052 174.827 58.6052V58.5939ZM174.827 57.8495C175.515 57.8495 176.045 57.5337 176.417 56.8908C176.699 56.3946 176.846 55.7968 176.846 55.075C176.846 54.0148 176.564 53.2478 176.011 52.7628C175.684 52.4809 175.289 52.3342 174.838 52.3342C174.116 52.3342 173.575 52.6613 173.214 53.3155C172.955 53.7892 172.83 54.3757 172.83 55.0637C172.83 56.1126 173.101 56.8796 173.643 57.3758C173.981 57.6804 174.376 57.8383 174.838 57.8383L174.827 57.8495Z" fill="white"/>
<path d="M182.248 58.4821L180.082 51.7261H180.973L182.078 55.3917C182.146 55.6173 182.236 55.9331 182.36 56.3391C182.507 56.8918 182.631 57.3204 182.744 57.6136H182.778C182.868 57.3204 182.992 56.9143 183.139 56.3842C183.263 55.9444 183.364 55.6173 183.432 55.3804L184.526 51.7148H185.394L183.24 58.4708H182.259L182.248 58.4821Z" fill="white"/>
<path d="M188.135 58.4815V51.7256H192.038V52.4474H188.992V54.5678H191.553V55.3009H188.992V57.7597H192.128V58.4928H188.124L188.135 58.4815Z" fill="white"/>
<path d="M200.09 58.4815H199.12L197.485 55.6167H196.267V58.4815H195.398V51.7256H197.519C199.087 51.7256 199.865 52.3685 199.876 53.6204C199.876 54.4776 199.493 55.0641 198.748 55.3912C198.624 55.4363 198.489 55.4814 198.353 55.5152L200.09 58.4703V58.4815ZM196.267 52.4136V54.9287H197.395C198.478 54.9175 199.03 54.4776 199.041 53.6204C199.041 52.9888 198.726 52.6166 198.117 52.47C197.914 52.4249 197.677 52.4023 197.406 52.4023H196.278L196.267 52.4136Z" fill="white"/>
<path d="M203.091 58.4815V51.7256H203.982L206.441 55.9777L207.162 57.3762H207.208C207.14 56.2822 207.106 55.5716 207.106 55.2445V51.7256H207.918V58.4815H207.05L204.58 54.2182L203.858 52.8196H203.813C203.813 52.9662 203.835 53.1805 203.858 53.4851C203.903 54.128 203.914 54.6129 203.914 54.9287V58.4815H203.091Z" fill="white"/>
<path d="M211.584 58.4815V51.7256H212.622L213.919 55.3348C213.919 55.3348 214.088 55.8198 214.404 56.7446H214.449L214.911 55.3348L216.197 51.7256H217.235V58.4815H216.434V54.737C216.434 54.3535 216.468 53.6881 216.547 52.7519H216.513L215.983 54.2859L214.697 57.8048H214.133L212.858 54.2859L212.317 52.7519H212.283C212.351 53.846 212.385 54.5002 212.385 54.737V58.4815H211.607H211.584Z" fill="white"/>
<path d="M220.911 58.4815V51.7256H224.813V52.4474H221.768V54.5678H224.328V55.3009H221.768V57.7597H224.903V58.4928H220.899L220.911 58.4815Z" fill="white"/>
<path d="M228.163 58.4815V51.7256H229.054L231.513 55.9777L232.235 57.3762H232.28C232.212 56.2822 232.178 55.5716 232.178 55.2445V51.7256H232.99V58.4815H232.111L229.641 54.2182L228.919 52.8196H228.885C228.885 52.9662 228.907 53.1805 228.93 53.4851C228.975 54.128 228.986 54.6129 228.986 54.9287V58.4815H228.163Z" fill="white"/>
<path d="M238.077 58.4815V52.4474H236.035V51.7256H240.987V52.4474H238.934V58.4815H238.077Z" fill="white"/>
</g>
<defs>
<clipPath id="clip0_1699_4354">
<rect width="240" height="58.5704" fill="white" transform="translate(0.988281 0.151367)"/>
</clipPath>
</defs>
</svg>
