<svg width="241" height="57" viewBox="0 0 241 57" fill="none" xmlns="http://www.w3.org/2000/svg">
<path d="M76.7216 20.517C76.7216 21.1891 76.4512 21.8613 75.9245 22.3936C75.5228 22.9323 74.8585 23.332 74.1934 23.7379C74.3318 24.0041 74.3318 24.2703 74.3318 24.5428C74.3318 25.0752 74.0614 25.6138 73.798 25.88C73.6667 26.0198 73.6667 26.286 73.5346 26.286V26.8247C75.7869 27.2243 76.985 28.0292 76.985 29.2337C76.985 30.1783 76.5833 30.578 75.7869 30.578C74.8585 30.578 74.0621 30.4445 73.4033 30.0393C73.4033 33.3922 73.4033 36.347 73.4033 39.0285C73.265 39.9669 73.1337 40.7717 72.8703 41.4439C72.3366 42.1153 71.9419 42.5149 71.6785 42.6476C71.1456 42.5149 70.8822 42.2487 70.7439 41.7101C70.6118 41.4439 70.4805 40.9044 70.4805 39.9661C70.4805 37.1519 70.4805 34.1979 70.4805 31.1167C70.3484 31.2494 70.2171 31.3829 70.0851 31.3829C69.2887 31.9215 68.6236 32.5874 67.8273 33.126C66.8989 33.7982 66.1025 34.4704 65.5687 34.8692C64.9045 35.6741 64.509 35.9403 64.509 35.9403C64.377 35.9403 64.377 35.5414 64.377 34.8692C64.6403 33.9309 65.1741 32.5874 66.2338 31.1167C67.0302 30.0385 67.6952 28.9675 68.354 28.0292C68.887 27.357 69.2887 26.5514 69.6842 25.6138C69.5521 25.6138 69.5521 25.6138 69.4208 25.6138C68.6244 25.6138 67.9586 25.3476 67.2943 24.809C66.2338 23.8706 65.8391 23.065 65.8391 22.3936C65.8391 21.8613 66.2346 21.4553 67.0309 21.0556C67.5639 20.9229 68.2227 20.6504 69.1512 20.517C69.5521 20.3843 70.0858 20.2508 70.4805 20.1181V14.4818C70.4805 13.6769 70.6126 13.1374 71.0143 12.6059C71.4089 12.1999 71.9427 12.0664 72.4686 12.0664C73.1337 12.7386 73.4041 12.872 73.6667 13.1382C74.0621 13.6769 74.1942 14.2156 74.1942 14.7479C74.1942 15.1539 74.1942 15.8261 74.0621 16.4919C73.9308 17.4302 73.7988 18.5076 73.7988 19.7121C74.5951 19.4459 75.1289 19.3124 75.3923 19.3124C76.3207 19.3124 76.7224 19.7121 76.7224 20.517H76.7216ZM84.6804 16.8979C84.5491 18.1024 84.4179 19.1734 84.4179 20.2516C84.2858 21.3226 84.2858 22.5271 84.0162 23.6045C83.7528 25.8808 83.4894 28.1627 83.0877 30.3118C82.8244 32.1885 82.4227 34.0652 81.8959 35.941C81.6255 36.8794 81.3622 37.6842 81.0996 38.4899C80.8292 39.2947 80.5658 39.9669 80.3032 40.5056C79.9015 41.1777 79.6382 41.5774 79.2365 41.9762C78.841 42.2487 78.7097 42.3822 78.5777 42.3822C78.4464 42.3822 78.4464 42.2487 78.4464 41.8436C78.4464 41.4439 78.7097 40.0996 79.1044 37.824C79.2365 36.6132 79.5061 35.5422 79.6382 34.4704C79.7695 33.6655 79.7695 32.9933 79.9015 32.3212C79.6382 32.7272 79.3748 33.1268 78.9731 33.6655C78.1768 35.0027 77.2475 35.6749 76.5833 35.6749C76.0565 35.6749 75.5228 35.5422 75.2602 35.276C74.9898 35.0027 74.7264 34.7365 74.7264 34.3306C74.7264 33.5257 75.3915 32.3212 76.7146 30.9777C77.6492 30.0393 78.841 29.101 80.3032 28.03C80.6979 24.1368 80.9675 20.5177 81.0996 17.4302C81.0996 15.9596 81.3622 15.1547 81.8959 15.1547C83.8841 15.1547 84.6804 15.6871 84.6804 16.8979ZM79.5061 23.0658C79.9015 23.6045 80.0328 24.4101 80.0328 25.0752C80.0328 26.1533 79.6374 26.6856 78.841 26.6856C78.4464 26.6856 78.3081 26.5522 78.0447 26.0198C77.6492 25.215 77.3796 24.6755 77.1163 24.4101C76.7146 23.8706 76.5833 23.332 76.5833 23.0658C76.5833 22.2609 77.1163 21.8613 78.1768 21.8613C78.7097 22.1274 79.1044 22.5263 79.5061 23.0658ZM89.9868 13.2709C90.3885 13.5442 90.5206 13.9431 90.6519 14.3491C90.5206 15.1539 90.3885 15.8197 90.1252 16.2257C89.9868 16.7644 89.8556 17.5693 89.7235 18.3678C89.5922 19.3132 89.4609 20.7831 89.3288 22.6661C89.1905 24.9425 89.0584 26.9581 88.9271 28.5686C88.9271 30.7115 88.9271 32.9933 88.9271 35.5414C89.0584 38.2237 89.7235 39.5672 91.0536 39.6999C91.5803 39.6999 92.1133 39.5672 92.5088 39.2947C92.9097 39.1612 93.173 38.7624 93.4364 38.3564C93.5755 37.9567 93.7068 37.6842 93.8381 37.2846C93.9702 36.8786 93.9702 36.0737 94.1015 34.8692C94.2335 34.3306 94.3719 33.9309 94.6352 33.9309C94.7665 34.0644 94.7665 34.3306 94.7665 34.7365C94.8978 35.5414 95.0299 36.0737 95.1682 36.4797C95.2995 37.0121 95.4316 37.5508 95.695 37.8169C95.8263 38.0894 96.0967 38.2229 96.4913 38.3556C96.893 38.4891 97.1564 38.8951 97.1564 39.1612C97.1564 39.5664 96.893 39.9661 96.6234 40.2323C96.36 41.0371 95.8263 41.5766 95.2995 41.9755C94.7665 42.3814 93.4434 42.5141 91.4483 42.6476C90.9215 42.6476 90.2565 42.5141 89.7235 42.3814C88.5317 42.1153 87.6033 41.3104 86.9382 40.0996C86.2739 39.0278 85.8722 37.1519 85.8722 34.4696C85.8722 31.2494 85.8722 28.7013 85.8722 26.6849C86.0106 24.9417 86.1419 23.3312 86.2739 21.7215C86.4052 19.9783 86.5373 18.3678 86.6686 17.0306C86.8069 15.6863 87.0703 14.6152 87.3336 13.4107C87.604 12.6059 87.9987 12.1999 88.4004 12.0664C89.1905 12.6051 89.5922 12.7386 89.9868 13.2709ZM93.7068 29.6397C94.2406 30.3118 94.5032 31.1167 94.5032 32.1885C94.5032 33.3922 94.1023 33.9317 93.1738 33.9317C92.7784 33.9317 92.3767 33.6655 91.982 33.1268C91.4483 32.1885 90.9215 31.649 90.5198 31.2502C89.9939 30.578 89.7235 30.0393 89.7235 29.507C89.7235 28.7021 90.2573 28.1627 91.4483 28.1627C92.3767 28.5686 93.1738 28.9675 93.7068 29.6397ZM92.3767 23.8706C91.85 24.4101 91.4483 24.6755 91.0536 24.6755C91.0536 24.2703 91.1857 23.8706 91.317 23.6045C91.4483 23.332 91.5803 22.9323 91.5803 22.3936C91.1849 22.1274 91.0536 21.8613 91.0536 21.4553C91.0536 20.7831 91.317 20.2508 91.85 19.8448C92.3767 19.5794 92.7784 19.3124 93.3051 19.3124C94.3711 19.3124 95.1682 19.5786 95.4316 19.9783C95.9646 20.3843 96.2279 21.0556 96.2279 21.8613C96.0959 22.2609 96.0959 22.6661 95.8263 22.9323C95.5629 23.332 95.2995 23.4718 95.0299 23.4718C94.7665 23.4718 94.5032 23.332 94.1015 23.1985C93.706 23.1985 93.0418 23.4718 92.3767 23.8706Z" fill="white"/>
<path d="M107.111 14.2167C107.243 14.3494 107.243 14.3494 107.243 14.4829C108.705 14.3494 110.43 14.0769 112.819 13.6772C115.473 13.411 117.73 13.2712 119.587 13.2712C120.384 13.2712 121.312 13.4111 122.108 13.4111C122.635 13.4111 123.3 13.5445 123.834 13.6772C124.096 13.411 124.498 13.1386 124.894 13.0059C126.355 13.1386 127.283 14.2096 127.817 16.2261C128.212 17.2971 128.614 19.7124 129.008 23.3323C129.14 26.0138 129.272 29.7735 129.272 34.7376C129.14 36.747 128.876 38.3567 128.343 39.5683C127.816 40.6394 127.283 41.3115 126.487 41.4442C125.96 41.8439 125.427 42.2491 125.163 42.516C124.762 42.7814 124.367 42.922 123.834 42.922C123.037 42.6487 122.642 42.2499 122.642 41.4442C122.642 41.1717 122.642 41.0382 122.642 40.9056C122.504 40.9056 122.372 40.9056 122.24 40.9056C122.108 40.9056 121.707 40.7721 120.91 40.6394C120.515 40.6394 120.114 40.5067 119.718 40.5067C114.807 40.5067 110.561 40.7721 107.111 41.3115C106.979 42.516 106.577 43.0547 105.781 43.0547C105.386 43.0547 104.985 42.516 104.458 41.4442C104.056 40.3732 103.924 38.8962 103.924 37.1522C103.793 33.7993 103.793 30.7118 103.793 27.7641C103.924 26.0209 104.056 24.1371 104.195 22.1278C104.326 20.5181 104.589 18.7749 104.853 17.0309C105.254 14.6164 105.649 13.272 106.314 13.1386C106.577 13.5445 106.848 13.8107 107.111 14.2167ZM111.621 38.3567C116.401 37.9571 119.185 37.6846 119.982 37.5519C120.779 37.5519 121.444 37.6846 122.108 38.0905C122.504 38.3567 122.905 38.6229 123.037 38.8954C123.169 38.8954 123.432 38.8954 123.571 38.8954C124.63 38.8954 125.025 37.1522 125.157 33.526C125.295 31.3832 125.295 29.234 125.295 26.8187C125.295 24.2706 125.025 21.4556 124.762 18.3681C124.499 16.3588 124.229 15.2877 123.834 15.155C122.905 15.4204 122.24 15.5539 121.575 15.5539C120.779 15.8201 120.252 15.8201 119.719 15.8201C118.659 15.9599 117.592 15.9599 116.532 16.0934C116.664 16.3588 116.796 16.6257 116.934 17.0309H117.066C118.126 16.8982 118.791 16.7655 119.185 16.7655C119.719 16.7655 119.982 17.0309 119.982 17.4306C119.982 18.1027 119.719 18.6414 119.324 18.7749C118.791 19.1745 117.994 19.447 117.066 19.7132C116.934 19.7132 116.934 19.7132 116.934 19.7132C116.934 19.9794 116.934 20.1192 116.934 20.3854V20.7843C117.197 20.6516 117.461 20.6516 117.592 20.6516C119.456 20.2519 120.779 19.9794 121.444 19.9794C122.504 19.9794 123.037 20.3854 123.037 21.1902C123.037 21.7226 122.635 22.2613 121.977 22.3947C120.91 22.8007 119.719 23.0669 118.659 23.1996C117.066 23.6056 115.473 23.8718 113.616 24.4104C112.154 24.8101 110.956 24.9428 109.896 24.9428C109.369 24.9428 108.968 24.8101 108.705 24.5439C108.441 24.4041 108.303 24.1379 108.303 23.7383C108.303 23.4658 108.441 23.1996 108.573 22.9334C108.836 22.6609 109.099 22.5274 109.369 22.3947C109.764 22.2613 110.824 22.1286 112.286 21.8561C112.951 21.7226 113.616 21.7226 114.281 21.4564V20.3854C113.748 20.5181 113.214 20.5181 112.819 20.5181C112.286 20.5181 111.891 20.3854 111.621 20.1121C111.358 19.8459 111.226 19.5797 111.226 19.3072C111.226 18.7749 111.489 18.5024 112.022 18.2362C112.687 18.1027 113.352 17.8366 114.281 17.6967C114.412 17.6967 114.412 17.6967 114.412 17.6967C114.543 17.2979 114.543 16.8919 114.675 16.6257C114.675 16.4922 114.675 16.4922 114.807 16.4922C114.01 16.6257 113.352 16.7584 112.555 16.8919C111.094 17.1652 109.764 17.4306 108.704 17.8366C108.308 18.1027 107.776 18.2362 107.374 18.3689C107.243 18.7749 107.11 19.1745 106.979 19.5805C106.847 20.6516 106.716 21.7226 106.577 22.9334C106.445 25.3488 106.314 27.4916 106.314 29.1021C106.314 32.5885 106.314 35.5425 106.445 37.818C106.445 38.3575 106.577 38.8962 106.577 39.1624C108.434 38.7635 110.027 38.6237 111.621 38.3575L111.621 38.3567ZM112.549 25.4815C113.083 25.3488 113.616 25.2153 114.142 24.9428C116.664 24.4104 118.389 24.1371 119.455 24.1371C120.384 24.1371 120.779 24.5431 120.779 25.0755C120.779 26.0138 120.384 26.8195 119.851 27.4908C118.922 28.7017 118.388 29.234 118.257 29.234C117.592 29.234 116.664 29.3738 115.604 29.5073C115.472 29.64 115.34 29.64 115.208 29.64C115.208 29.7735 115.208 29.7735 115.208 29.9062C115.208 30.0397 115.208 30.0397 115.07 30.1723C114.939 30.9772 114.939 31.5167 114.939 31.9226C114.939 32.1888 114.939 32.5877 115.07 33.1272C115.208 33.526 115.208 33.932 115.208 34.1982C115.735 34.0655 116.137 33.7985 116.532 33.526C117.197 33.2598 117.73 32.9937 117.994 32.861C117.592 32.5877 117.197 32.3215 116.796 32.0553C115.999 31.9163 115.735 31.5167 115.735 31.1178C115.867 30.7118 116.137 30.4456 116.796 30.3121C117.197 30.3121 117.73 30.4456 118.527 30.8445C118.922 30.4456 119.317 29.9062 119.851 29.2348C120.647 28.2965 121.181 27.8968 121.575 27.8968C121.977 27.8968 122.24 28.0303 122.372 28.2965C122.635 28.7024 122.773 28.9686 122.773 29.5073C122.773 29.907 122.503 30.1731 122.108 30.3121C121.312 30.5783 120.647 30.7118 120.114 30.978C119.851 31.1178 119.586 31.2505 119.317 31.384C120.515 32.0553 121.443 32.5885 121.977 33.1272C123.037 33.932 123.702 34.7376 123.702 35.5425C123.702 36.2147 123.168 36.4808 121.977 36.4808C121.707 36.4808 121.049 35.9414 120.114 34.8703C119.586 34.3317 119.185 33.932 118.659 33.526C118.527 33.6658 118.388 33.7993 118.257 33.932C117.862 34.3317 117.329 34.7369 116.664 35.409C116.137 35.8087 115.604 36.2147 115.209 36.4808C113.747 37.4192 112.819 37.8252 112.022 37.8252C111.226 37.8252 110.824 37.2857 110.429 36.2147C110.429 35.9414 110.561 35.676 110.824 35.676C111.759 35.5425 112.687 35.2763 113.484 35.0038C113.345 34.6042 113.345 34.3317 113.345 33.932C113.345 33.1272 113.345 32.455 113.345 31.7828C113.083 32.0561 112.819 32.1888 112.549 32.455C111.891 33.1272 111.226 33.6658 110.561 34.1982C110.028 34.6042 109.632 35.003 109.231 35.2763C108.836 35.5425 108.434 35.8087 108.302 35.9414C107.908 36.3474 107.644 36.4808 107.375 36.4808C107.243 36.4808 107.243 36.3474 107.243 36.0812C107.375 35.9414 107.506 35.5425 107.776 35.1365C108.039 34.7369 108.302 34.3317 108.573 34.0655C108.967 33.6658 109.231 33.1272 109.764 32.5877C110.561 31.7828 111.357 30.9843 112.022 30.3121C111.752 30.0397 111.489 29.64 111.226 29.1013C110.824 28.163 110.561 27.3581 110.561 26.686C110.561 26.4198 110.692 26.0209 110.956 25.4815C111.226 25.2153 111.489 25.0826 111.621 25.0826C112.022 24.9428 112.286 25.0755 112.549 25.4815ZM115.071 28.0295C115.736 27.8968 116.532 27.7633 117.461 27.6235C117.862 27.0912 117.994 26.5525 117.994 26.0201C116.934 26.0201 115.736 26.1536 114.412 26.5525C113.879 26.8187 113.616 27.092 113.346 27.3581C113.477 27.8968 113.616 28.2957 113.616 28.4292C114.011 28.2957 114.544 28.163 115.071 28.0295Z" fill="white"/>
<path d="M157.811 22.9328C158.075 22.8001 158.338 22.8001 158.47 22.8001C159.134 22.8001 159.799 23.1998 160.333 23.7385C160.991 24.5433 161.393 25.349 161.393 26.42V28.8353C161.393 30.3124 161.13 31.9157 160.728 33.3927C160.333 34.7371 159.931 35.4092 159.537 35.5419C158.872 35.9416 158.338 36.2141 157.943 36.6137C157.542 36.8799 157.147 37.0197 156.613 37.0197C156.218 37.0197 156.08 36.8799 155.817 36.4803C155.685 36.0751 155.553 35.6754 155.553 35.2765C155.152 34.7371 154.757 34.4709 154.494 34.1984C154.092 34.0657 153.697 33.9322 153.164 33.7987V34.8706C153.164 37.1524 152.9 38.8956 152.63 40.3734C151.834 41.9768 151.307 43.4538 150.905 44.5248C150.378 44.3921 150.109 43.1876 149.714 41.0384C149.714 35.0032 149.582 30.3124 149.582 26.6862C148.654 26.9587 147.857 27.2248 147.192 27.3583C146.79 27.6308 146.396 27.7635 145.994 28.1632C145.994 28.4357 145.863 28.7019 145.863 28.968C145.863 29.7729 145.863 30.1789 145.863 30.445C145.863 30.9845 145.994 31.7894 146.125 32.4544C146.265 33.2593 146.265 34.0649 146.265 34.8698C146.265 35.6746 145.994 36.2141 145.599 36.7464C145.336 37.1524 145.066 37.2851 144.539 37.2851C144.006 37.2851 143.341 36.4803 142.808 34.7363C142.412 32.9931 142.149 31.3834 142.149 29.9056C142.149 28.5684 142.149 27.63 142.281 26.8252C142.412 26.0203 142.676 25.2147 143.078 24.2764C143.472 23.6042 143.874 23.338 144.269 23.338C144.934 23.338 145.467 23.7377 145.862 24.4098C145.862 24.5425 145.994 24.6752 145.994 24.6752C146.923 24.5425 148.121 24.2764 149.582 23.8704C149.582 22.2607 149.582 21.0562 149.582 20.2513C148.654 20.384 147.587 20.384 146.658 20.384C143.341 20.6502 140.951 20.9227 139.759 21.1889C138.963 21.1889 138.429 21.0562 138.166 20.6502C137.764 20.1178 137.633 19.7118 137.633 19.4457C137.633 18.6408 138.429 18.1014 140.023 17.7025C141.221 17.5698 144.401 17.2965 149.582 16.8976C149.18 16.0928 148.654 15.2871 148.121 14.4823C147.587 13.9436 147.456 13.138 147.456 12.3394C147.456 12.0669 147.587 11.8008 147.857 11.3948C148.253 11.1286 148.515 10.9951 148.917 10.9951C149.977 11.2613 150.905 11.8008 151.834 12.7391C152.9 13.8101 153.565 15.1537 153.565 16.7641C153.565 16.8976 153.565 16.8976 153.565 16.8976C155.021 16.7641 156.35 16.7641 157.674 16.6315C159.405 16.6315 160.86 16.498 162.19 16.3582C162.717 16.2255 162.986 16.2255 163.25 16.2255C163.915 16.2255 164.58 16.6315 165.106 17.0303C165.508 17.4363 165.771 17.9687 165.771 18.6408C165.771 19.5792 165.106 20.1178 163.651 20.1178C163.118 20.1178 162.585 20.1178 161.926 19.9843C161.393 19.9843 160.86 19.8445 160.464 19.8445C158.075 19.9843 155.685 20.1178 153.295 20.2505C153.295 21.0554 153.164 22.1272 153.164 23.4715C154.625 23.338 155.948 23.1982 157.146 23.1982C157.278 23.1982 157.542 23.0655 157.811 22.932V22.9328ZM153.032 26.1538C153.164 28.4294 153.164 30.8447 153.164 33.3927C153.96 33.666 155.02 33.666 156.481 33.666C157.015 33.5262 157.278 32.9939 157.278 31.9157C157.278 28.968 157.41 27.0922 157.41 26.1538C157.278 25.2155 157.146 24.8095 156.883 24.8095C156.745 24.9422 156.481 25.2155 156.35 25.2155C155.553 25.4817 154.493 25.6144 153.163 25.8805V26.1538H153.032Z" fill="white"/>
<path d="M182.895 17.2971V18.3752C182.895 18.9076 182.625 19.4462 182.23 19.7124C181.697 20.1184 180.769 20.6508 179.439 21.1894C178.51 21.5891 177.583 21.9943 176.522 22.2612C175.989 22.5266 175.463 22.7999 175.061 23.0661C174.534 23.4721 174.001 23.6048 173.606 23.6048C173.073 23.6048 172.671 23.3323 172.276 22.9326C172.013 22.6664 171.743 22.3939 171.479 21.9943C171.078 21.5891 170.946 21.1894 170.946 20.7834C170.946 20.5173 171.216 20.2511 171.611 19.9786C172.276 19.7124 173.073 19.4462 174.001 19.1737C174.798 18.9076 175.594 18.7741 176.39 18.5079C176.39 18.2354 176.39 17.9692 176.39 17.7031C176.39 17.1644 176.128 16.7647 175.594 16.226C175.061 15.6874 174.798 15.155 174.665 14.4829C174.665 13.9442 174.929 13.5445 175.463 13.411C176.522 13.5445 177.451 13.8107 178.247 14.3494C179.307 15.2877 179.841 16.226 179.841 17.0309C179.841 17.2971 179.841 17.4306 179.841 17.564C181.032 17.1644 181.829 17.0309 182.362 16.7584C182.625 16.8982 182.895 17.0317 182.895 17.2979V17.2971ZM174.132 34.8703C174.264 35.003 174.396 35.003 174.396 35.1365C175.061 34.8703 175.857 34.6042 176.654 34.1982C178.642 33.3925 179.709 32.8602 180.104 32.8602C180.367 32.8602 180.9 33.1264 181.565 33.6658C182.098 34.1982 182.494 34.6042 182.494 34.7368C182.494 35.2692 182.362 35.6752 182.362 36.0741C182.23 36.7462 182.099 37.4184 181.961 37.957C182.23 38.2232 182.362 38.4894 182.362 38.7627C182.362 39.1616 182.099 39.5675 181.697 39.5675C180.9 39.8337 180.235 40.2326 179.571 40.6386C179.044 41.0382 178.643 41.3107 178.379 41.5769C178.379 41.7104 178.379 41.8431 178.379 41.8431C178.379 42.6479 178.116 43.1874 177.714 43.1874C177.187 43.1874 176.654 42.9212 176.121 42.5152C175.594 42.1156 174.798 41.178 173.731 39.8337C172.803 38.3567 172.276 37.1522 172.144 36.2139C172.276 35.409 172.671 35.003 173.336 34.7368C173.468 34.6042 173.738 34.7368 174.132 34.8695V34.8703ZM180.374 23.0661C180.505 23.4721 180.637 23.7383 180.637 23.871C180.637 24.8093 180.235 25.4814 179.577 26.1536C179.176 26.5525 178.642 26.9585 177.984 27.2246C177.451 27.4908 176.917 27.6306 176.522 27.6306C175.989 27.6306 175.594 27.4908 175.331 27.2246C174.797 26.825 174.665 26.5525 174.665 26.1536C174.665 25.8803 174.797 25.4814 175.192 25.0755C175.989 24.6758 176.917 24.1371 178.116 23.6048C179.176 23.0661 179.841 22.7999 180.104 22.7999C179.972 22.7999 180.104 22.9334 180.374 23.0661ZM180.637 28.4291C180.768 28.5689 180.9 28.8351 180.9 29.1013C180.9 29.3675 180.768 29.64 180.637 29.9062C180.505 30.1723 180.235 30.4448 179.841 30.711C179.307 31.2497 178.643 31.6493 178.116 31.9218C177.582 32.188 177.187 32.3215 176.654 32.3215C176.259 32.3215 175.857 32.188 175.594 31.9218C175.192 31.5159 174.929 31.2497 174.929 30.8445C174.929 30.5783 175.324 30.1723 176.121 29.7727C176.522 29.5065 177.049 29.234 177.582 28.8343C177.984 28.5682 178.378 28.4284 178.912 28.2957C179.308 28.1622 179.709 28.1622 180.104 28.1622C180.235 28.0295 180.506 28.2957 180.637 28.4284V28.4291ZM179.044 37.957C179.044 37.8172 179.176 37.4184 179.176 36.8797C179.176 36.48 179.307 36.0748 179.307 35.8079C179.307 35.5417 179.176 35.409 178.912 35.409C178.116 35.8079 177.451 36.2139 176.917 36.6135C176.654 36.8789 176.39 37.0124 176.259 37.1522C176.522 37.6845 176.917 38.2232 177.187 38.8954C177.187 39.0281 177.319 39.0281 177.319 39.1616C178.247 38.8954 178.78 38.3567 179.043 37.957H179.044ZM196.826 10.9957C197.096 11.3954 197.36 11.8005 197.36 12.2002C197.36 12.8724 196.826 13.411 195.634 13.8107C195.101 14.0769 194.436 14.4829 193.909 14.749C194.436 14.6155 194.838 14.6155 195.101 14.6155C195.634 14.6155 196.161 14.749 196.562 15.155C196.958 15.5539 197.228 15.9599 197.228 16.226C197.228 16.6257 196.958 17.0309 196.293 17.1644C195.766 17.4306 194.97 17.564 194.041 17.7031C193.244 17.8365 192.448 17.9692 191.651 18.1027C191.651 18.6414 191.651 19.1737 191.783 19.5797C192.843 19.3072 193.508 19.1737 193.909 19.1737C194.436 19.1737 194.838 19.3072 195.233 19.5797C195.634 19.9794 195.766 20.2519 195.766 20.5181C195.766 20.9177 195.496 21.1902 194.97 21.3229C194.568 21.4564 193.903 21.5891 193.244 21.7226C192.711 21.8624 192.317 21.8624 191.783 21.8624C191.783 22.1286 191.783 22.3947 191.783 22.5274C191.783 22.9334 191.783 23.1996 191.651 23.4658C194.568 22.9334 196.562 22.6609 197.36 22.6609C197.886 22.6609 198.419 22.8007 198.814 23.0669C199.216 23.4666 199.348 23.8717 199.348 24.1379C199.348 24.5439 199.084 24.8101 198.419 24.9436C197.754 25.2161 196.694 25.3495 195.364 25.6149C194.838 25.7484 194.304 25.7484 193.771 25.8811C194.041 26.1544 194.173 26.4206 194.304 26.8194C194.304 27.7641 194.304 28.5697 194.436 29.5081C195.496 29.3675 196.161 29.2348 196.694 29.2348C197.22 29.2348 197.622 29.3746 198.017 29.6408C198.419 30.0404 198.551 30.3129 198.551 30.5791C198.551 30.978 198.287 31.2513 197.754 31.384C197.089 31.6501 196.161 31.9226 194.969 32.1888C195.1 33.1271 195.364 33.932 195.634 34.7376C195.765 35.0038 195.765 35.2763 195.897 35.5425C196.826 34.7376 197.359 34.0655 197.622 33.5331C198.017 32.861 198.419 32.455 198.814 32.455C199.215 32.5885 199.61 32.7283 199.88 32.9944C200.275 33.3933 200.539 33.9328 200.539 34.3317C200.539 34.7376 200.143 35.1365 199.215 35.5425C198.419 36.4808 197.622 37.2857 196.826 37.8251C197.088 38.224 197.22 38.63 197.49 38.8962C198.419 39.9672 198.945 40.6394 199.215 40.6394C199.478 40.6394 199.88 40.2334 200.143 39.4348C200.539 38.0905 200.808 37.4192 200.808 37.4192C200.94 37.4192 201.072 37.5519 201.072 37.5519C201.072 39.0289 201.072 40.3732 201.204 41.3115C201.737 41.7104 202 42.1164 202 42.3825C202 42.6487 201.868 42.922 201.737 43.1874C201.335 43.3209 200.94 43.5934 200.676 43.7269C200.407 43.993 200.143 44.1257 199.742 44.1257C198.813 44.1257 197.753 43.5934 196.562 42.3825C195.765 41.5777 194.969 40.5067 194.435 39.295C194.304 39.295 194.304 39.4348 194.304 39.4348C193.508 39.8345 192.579 40.2405 191.38 40.772C190.584 41.178 189.926 41.5777 189.392 42.1164C189.13 42.1164 189.13 41.9837 189.13 41.8502C189.13 41.5777 189.392 41.0453 189.926 40.2405C190.321 39.701 190.854 39.1623 191.519 38.7635C192.316 38.3575 192.974 37.9578 193.507 37.4192C192.974 36.0812 192.447 34.7376 192.045 32.9937V32.861C190.986 33.1271 189.794 33.3933 188.727 33.6658C188.464 33.7993 188.332 33.7993 188.069 33.932C188.069 34.4707 188.069 35.003 188.2 35.409C188.464 35.2763 188.727 35.2763 188.997 35.003C189.523 34.7376 190.188 34.4707 190.59 34.0655C190.722 34.1982 190.722 34.338 190.722 34.6042C190.59 35.2763 190.321 35.8087 189.925 36.0812C189.523 36.4808 188.865 36.886 188.332 37.4184C188.332 37.6917 188.332 37.9578 188.332 38.0905C188.332 39.295 188.2 40.3732 188.069 41.0453C187.931 41.7104 187.667 42.2491 187.273 42.6487C187.134 42.6487 187.002 42.7885 186.739 42.9212C186.476 43.0547 186.344 43.1874 186.075 43.4536C185.811 43.7269 185.679 43.8596 185.41 43.993C185.146 44.1257 185.014 44.2584 184.751 44.2584C184.349 44.1257 184.087 43.7261 183.954 43.0547C183.816 42.6487 183.421 42.3825 182.756 41.9829C182.23 41.7104 181.828 41.4442 181.697 41.178C181.697 40.9055 181.828 40.9055 181.96 40.772C183.026 40.9055 183.954 41.0382 184.613 41.0382C185.146 41.0382 185.548 40.6386 185.548 39.5675C185.548 39.295 185.548 39.0289 185.679 38.7627C185.41 38.8962 185.146 39.0289 185.015 39.1623C184.481 39.4285 184.087 39.5683 183.823 39.5683C183.027 39.5683 182.625 39.295 182.493 38.63C182.493 38.224 182.756 37.6853 183.158 37.1522C183.421 37.0195 183.822 36.747 184.481 36.4808C184.883 36.3473 185.278 36.0812 185.679 35.9414C185.679 35.409 185.679 34.8703 185.679 34.1982C184.883 34.4715 184.349 34.4715 183.954 34.4715C183.553 34.4715 183.158 34.1982 182.624 33.7993C182.229 33.5331 182.091 33.1271 182.091 32.861C182.091 32.5885 182.23 32.3223 182.756 32.1888C183.553 31.9226 184.481 31.6501 185.547 31.384C185.547 31.1178 185.409 30.978 185.409 30.7118C185.409 30.5791 185.278 30.3129 185.278 30.1794L185.145 30.1731C184.349 30.4464 183.684 30.7118 182.888 30.8453C182.624 30.8453 182.624 30.8453 182.624 30.7118C182.624 30.5791 182.756 30.3129 183.026 30.0404C183.822 29.1021 184.751 28.2965 185.548 27.7641C186.476 27.0927 187.273 26.6867 187.937 26.6867C188.332 26.6867 188.596 26.8194 188.734 27.0927C188.997 27.4916 189.261 27.7641 189.261 28.1638C189.261 28.7024 188.734 29.1021 187.799 29.2348C187.667 29.3746 187.404 29.3746 187.272 29.5081C187.404 29.7743 187.404 30.1731 187.535 30.5791C188.332 30.3129 189.26 30.1731 190.188 29.7743C190.59 29.6416 190.854 29.6416 191.117 29.5081C190.986 29.1021 190.986 28.7032 190.854 28.2972C190.591 27.2262 190.591 26.5541 190.591 26.2879C190.591 26.1552 190.591 25.8819 190.722 25.7492C189.926 25.8819 188.997 26.0217 188.2 26.1552C185.416 26.8266 183.691 27.0935 183.026 27.0935C182.624 27.0935 182.098 26.8273 181.696 26.4214C181.3 26.0217 181.169 25.7492 181.169 25.483C181.169 25.2168 181.433 24.9443 181.827 24.8109C183.421 24.4112 185.679 24.006 188.332 23.4737C188.332 23.2004 188.332 22.935 188.332 22.8015V21.8632C187.009 22.2628 186.081 22.3955 185.81 22.3955C185.416 22.3955 185.014 22.2628 184.619 21.8632C184.355 21.5907 184.217 21.3245 184.217 21.0583C184.217 20.7858 184.487 20.6523 184.751 20.5196C185.679 20.2535 186.87 19.9802 188.332 19.714C188.332 19.3151 188.332 19.0426 188.332 18.7765C188.332 18.643 188.332 18.3705 188.2 18.237C186.476 18.7765 185.284 18.9091 184.882 18.9091C184.349 18.9091 183.822 18.643 183.421 18.1043C183.025 17.7046 182.894 17.4321 182.894 17.0325C182.894 16.6273 183.157 16.4938 183.69 16.2276C184.355 16.0949 185.145 15.9614 185.942 15.6889C185.678 15.5555 185.547 15.4228 185.284 15.1566C184.75 14.2183 184.487 13.4134 184.355 12.4688C184.355 11.6631 184.619 11.1308 185.284 10.8646C186.212 10.8646 187.009 11.2642 187.535 11.9364C188.068 12.8747 188.464 13.6796 188.464 14.4844C188.464 14.7506 188.464 15.0168 188.464 15.1566C188.865 15.0168 189.398 15.0168 189.925 14.7506C190.056 14.7506 190.327 14.7506 190.458 14.6179C190.985 13.8131 191.782 12.8747 192.848 11.5304C194.04 10.4586 194.968 9.91992 195.633 9.91992C196.43 10.5921 196.693 10.7248 196.825 10.9981L196.826 10.9957ZM200.013 26.686C200.546 27.3581 200.941 28.0303 200.941 28.7016C200.941 29.1013 200.809 29.3738 200.546 29.64C200.275 30.0396 199.881 30.1723 199.617 30.1723C199.479 30.1723 199.216 30.0396 198.952 29.9062C198.683 29.7735 198.419 29.5073 198.419 29.2348C198.287 28.8351 198.156 28.4299 197.893 28.163C197.36 27.6243 197.096 27.3581 197.096 27.0919C197.096 26.686 197.228 26.4198 197.36 26.1536C197.491 26.0138 197.754 25.8811 198.156 25.8811C198.683 25.8811 199.348 26.1536 200.012 26.686H200.013Z" fill="white"/>
<path d="M209.301 24.6759C208.373 25.3481 207.709 25.8804 207.182 26.1537C206.648 26.6861 206.253 26.8188 205.852 26.8188C205.72 26.8188 205.72 26.6861 205.72 26.2864C205.852 25.8804 206.246 25.2154 206.78 24.2707C207.313 23.4651 207.84 22.6666 208.505 21.8617C209.301 20.7836 210.099 19.8452 211.026 18.7742C212.752 16.8975 214.476 15.2878 216.069 13.9435C218.459 11.8007 219.921 10.5898 220.585 10.5898C221.112 10.5898 221.514 10.8631 221.777 11.262C222.041 11.5282 222.179 11.9342 222.179 12.4665C222.31 12.6063 222.442 12.6063 222.574 12.6063C223.634 13.0052 224.701 13.6773 225.761 14.3495C227.222 15.554 228.677 16.4924 230.139 17.4299C231.6 18.2348 233.062 19.0404 234.517 19.8452C236.643 21.1896 237.704 21.9944 237.704 22.3941C237.704 22.5268 237.571 22.5268 237.308 22.5268C236.906 22.5268 236.512 22.5268 236.242 22.3941C235.979 22.3941 235.715 22.3941 235.583 22.3941C234.918 22.3941 234.385 22.5268 234.122 22.6666C233.859 22.8001 233.72 22.9327 233.589 22.9327C233.326 22.9327 233.194 22.9327 232.924 22.9327C232.397 22.9327 231.732 22.6666 230.672 22.1279V22.2606C230.54 24.0038 230.007 25.6143 228.948 27.3575C227.617 29.1006 226.426 30.039 225.096 30.1725C224.832 30.1725 224.563 30.039 224.431 29.9063C224.036 29.6401 223.634 29.5066 223.239 29.5066C222.706 29.5066 221.515 29.6401 219.79 29.9063C217.926 30.1725 216.603 30.445 215.675 30.8446C215.543 31.5168 215.142 31.9157 214.609 31.9157C213.68 31.9157 212.62 30.7111 211.56 28.1631C210.896 26.1537 210.5 24.8094 210.5 23.8711C210.5 23.7384 210.5 23.7384 210.5 23.4651C210.231 24.0038 209.835 24.27 209.302 24.6759H209.301ZM226.557 19.1739C225.359 18.2355 224.299 17.2972 223.371 16.3589C222.31 15.4205 221.244 14.7484 220.184 14.3495C219.124 15.1544 217.926 16.3589 216.34 17.9694C215.141 19.3137 213.95 20.5174 212.62 21.7219C212.883 21.8617 213.153 22.1279 213.416 22.3941C214.877 21.9944 216.734 21.5892 218.992 21.0569C221.382 20.6509 223.502 20.5174 225.629 20.5174C226.294 20.5174 226.82 20.5174 227.485 20.6509C227.748 20.5174 227.88 20.5174 228.018 20.3847C227.485 19.9787 227.084 19.5799 226.557 19.1739ZM217.399 28.4293C217.13 28.2958 216.734 27.7634 216.201 26.9586C215.807 26.4199 215.675 25.8812 215.675 25.3489C215.675 24.8094 216.07 24.5432 216.603 24.5432C217.13 24.6767 217.399 24.8094 217.663 25.0756C217.795 25.6151 217.795 26.1537 217.926 26.5534C218.064 27.0921 218.064 27.6244 218.064 28.0304C218.064 28.1631 218.064 28.2966 218.064 28.2966C218.328 28.1631 218.591 28.1631 218.861 28.1631C218.993 26.6861 218.993 25.3489 218.993 23.8719C217.268 24.2707 215.543 24.8102 214.081 25.3489C214.344 26.9523 214.476 28.1631 214.615 28.8353C214.746 28.9687 214.878 29.1014 214.878 29.2349C215.675 28.8353 216.471 28.7026 217.399 28.4301V28.4293ZM216.603 32.4551C216.866 32.5878 217.267 32.5878 217.531 32.5878C219.52 32.3216 221.244 32.1882 222.574 32.0555C222.838 32.0555 223.107 31.7822 223.371 31.5168C223.634 31.2506 223.904 31.1171 224.167 31.1171C224.7 31.1171 225.227 31.5168 225.892 32.3216C226.557 33.3927 226.952 34.4708 226.952 35.6753C227.091 36.7463 227.091 37.9572 227.091 39.2944C226.952 40.7722 226.557 41.8432 225.497 42.7816C224.431 43.7262 223.371 44.2586 222.442 44.2586C222.179 44.2586 222.047 43.8589 222.047 43.1867C221.909 42.6481 221.645 42.3819 221.112 42.3819C219.526 42.3819 218.196 42.5154 217.004 42.9213C217.004 43.054 217.004 43.054 216.866 43.1867C216.471 43.7199 216.208 44.1251 216.069 44.1251C215.542 44.1251 215.141 43.7199 214.746 42.9213C214.344 42.1157 214.213 41.0376 214.081 39.7004C214.081 37.8174 214.213 36.7463 214.213 36.214C214.213 35.6753 214.344 34.8697 214.614 33.7986C215.009 32.8603 215.273 32.4543 215.675 32.4543C216.201 32.0555 216.471 32.1882 216.603 32.4543V32.4551ZM223.371 17.031C223.371 17.8359 223.107 18.3753 222.574 18.508C222.179 18.7742 221.646 19.0412 220.981 19.3137C220.448 19.5799 220.053 19.7126 219.651 19.846C219.124 19.9787 218.591 19.9787 218.196 19.9787C217.663 19.9787 217.13 19.846 216.866 19.5799C216.603 19.3137 216.471 19.0404 216.471 18.6415C216.471 18.1021 216.866 17.7032 217.399 17.4307C217.795 17.2972 218.459 17.1645 218.993 17.031C219.52 16.8975 220.184 16.7649 220.981 16.4924C221.777 16.3589 222.179 16.3589 222.442 16.2262C223.107 16.3589 223.371 16.4924 223.371 17.031ZM218.46 39.9673C219.52 39.8338 221.113 39.8338 223.239 39.7012C223.371 39.7012 223.503 39.2952 223.503 38.2241C223.503 36.2148 223.634 35.0032 223.634 34.6043C223.634 34.0656 223.371 33.5261 222.838 33.3935C222.311 33.3935 221.646 33.5261 220.981 33.5261C220.185 33.7994 219.388 34.0656 218.723 34.331C218.328 34.6043 217.795 34.737 217.268 35.1366C217.13 35.6753 217.13 36.214 216.998 36.4802C217.531 36.3475 218.064 36.0813 218.723 35.8088C219.658 35.5426 220.185 35.2764 220.455 35.2764C220.85 35.2764 221.251 35.4091 221.646 35.6753C222.041 35.9415 222.18 36.2148 222.18 36.6136C222.18 37.0196 221.909 37.2858 221.383 37.4185C221.113 37.552 220.85 37.552 220.448 37.6918C219.921 37.8245 219.257 37.958 218.592 38.0907C217.796 38.3568 217.268 38.4966 217.137 38.4966C216.998 38.4966 216.867 38.4966 216.735 38.3568V39.435C216.735 39.7012 216.735 39.9673 216.867 40.1C217.531 40.2335 218.065 40.1 218.46 39.9673ZM221.383 27.6244C221.646 27.6244 221.777 27.6244 221.909 27.4909C222.041 27.2248 222.041 26.8196 222.311 26.4199C222.706 25.4816 223.107 24.6767 223.371 24.0046C223.766 23.3324 224.036 22.9335 224.299 22.8001C224.431 22.8001 224.431 22.6603 224.563 22.6603L224.832 22.6666C225.497 22.8001 225.893 23.1997 225.893 24.0046C225.893 24.5432 225.761 24.9429 225.629 25.0756C225.498 25.3489 225.228 25.4816 224.964 25.4816C224.563 25.7478 224.036 26.0203 223.503 26.5526C223.372 26.8259 223.107 27.0921 223.107 27.3582C223.634 27.2248 224.168 27.2248 224.431 27.2248C225.096 27.2248 225.497 27.2248 225.629 27.3582C226.82 25.7478 227.485 24.0046 227.485 21.9952C226.82 22.3941 226.024 22.6666 225.096 22.6666H224.964C224.832 22.6666 224.563 22.8001 224.563 22.8001C223.503 22.9327 222.574 23.0662 221.777 23.1997C221.515 25.0756 221.515 26.5526 221.383 27.6244Z" fill="white"/>
<path d="M44.6688 33.2315C46.5253 31.4873 47.7154 29.2827 48.7748 27.0068C47.7154 24.7252 46.0554 22.5287 44.1989 20.7861C41.4073 18.1041 38.359 15.555 35.1721 13.2734C31.8552 14.8831 29.4653 17.9704 28.6682 21.7239C27.8719 18.1041 25.6127 15.0233 22.433 13.2734C20.9718 14.3506 19.7737 15.1563 17.12 17.2984C14.5987 19.1756 12.4791 21.3243 10.6162 23.7396C10.4839 23.8733 10.3523 24.1392 10.22 24.2721L10.0893 24.4115C9.68752 25.2164 9.14299 26.0682 8.74121 27.0068C9.01067 27.8116 9.57605 29.1328 9.87036 29.4967C10.1647 29.8606 13.8601 34.4962 15.8241 35.9289C18.3462 37.8053 20.8459 39.697 22.433 40.9087C25.62 39.1588 27.9617 36.5101 28.758 33.024C29.5544 36.6438 31.9065 39.1653 35.225 40.9087C38.6364 38.7496 41.9096 36.1594 44.6688 33.2315Z" fill="white"/>
<path d="M28.7993 17.3571C29.9974 15.2149 31.8724 13.4115 33.9928 12.3335C32.2477 11.3399 30.2485 9.59875 28.7993 7.8125C27.4339 9.35226 24.5201 11.5473 23.5225 12.3335C25.6484 13.4115 27.6076 15.347 28.7993 17.3571Z" fill="#13A453"/>
<path d="M15.525 16.3592C17.7841 14.6166 19.2156 13.3903 20.5444 12.5855L19.6205 12.4817C11.3909 12.3488 7.62008 18.2354 8.02106 23.9974L8.23038 24.6775C8.3627 24.5437 8.3627 24.4108 8.49422 24.2714C10.4823 21.1906 12.7406 18.6424 15.5258 16.3592H15.525Z" fill="white"/>
<path d="M8.62734 29.7733C8.49582 29.6404 8.25684 29.1168 8.12532 28.9766L8.02271 30.2215C7.75966 35.7233 11.5016 42.2017 19.7248 41.5298C19.9951 41.5298 20.1755 41.4447 20.4385 41.311C18.9838 40.2338 17.5218 39.1615 15.6653 37.5518C12.8745 35.2694 10.4839 32.7211 8.62734 29.7733Z" fill="#13A453"/>
<path d="M37.292 41.3113L38.3041 41.4264C43.0773 41.6923 45.4896 39.9335 47.7479 36.4466C48.4127 35.1028 48.9211 33.6633 49.185 32.193C49.3229 31.2553 49.2411 30.3127 49.1032 29.5078C48.1745 30.9773 47.2467 32.3219 46.1865 33.5263C43.4021 36.4807 40.479 39.0297 37.292 41.3113Z" fill="#13A453"/>
<path d="M28.6681 2.67969C15.2634 2.67969 4.38086 13.6784 4.38086 27.2261C4.38086 40.773 15.2634 51.7717 28.6681 51.7717C42.0719 51.7717 52.9545 40.773 52.9545 27.2261C52.9545 13.6784 42.0719 2.67969 28.6681 2.67969ZM48.98 36.1361C46.854 39.8952 43.2701 42.9225 39.0173 42.9225C37.9571 42.9225 36.5994 42.6559 35.5328 42.2571C34.8752 42.7961 34.3202 43.1033 33.7878 43.502C31.7997 44.8467 29.9977 46.5017 28.6681 48.3781C27.3448 46.6347 25.8829 45.1976 24.1587 43.9932C23.3623 43.3221 22.6478 42.7596 21.983 42.3608C20.9228 42.7596 19.6838 42.8796 18.4929 42.8796C11.8559 42.8796 6.63916 37.4199 6.77149 30.7121C6.77149 29.3683 7.03373 28.1639 7.43551 26.82C7.03373 25.6156 6.77149 24.2718 6.77149 22.9336C6.77149 16.3595 12.0772 10.9972 18.7134 10.9972C19.7808 10.9972 20.9717 11.1301 22.0319 11.5289C22.6967 10.9972 23.3623 10.4582 24.2894 9.78627C27.8717 7.10428 28.3337 6.81007 28.8605 5.73857C30.3225 7.61572 32.1181 8.8477 33.981 10.1923C34.5079 10.5919 35.1727 11.1301 35.9691 11.6626C37.0293 11.3968 38.0894 11.263 39.2876 11.263C45.1274 11.263 49.6368 15.6349 50.5655 21.4042C50.8285 23.2805 50.3345 25.3441 49.8012 27.2261C50.2118 29.7038 50.9886 32.4661 48.98 36.1361Z" fill="#2E3590"/>
<path d="M46.055 20.518C47.1152 21.7224 48.2571 23.5883 49.185 24.9313C49.3229 23.9927 49.2411 22.6675 49.1032 21.7297C48.8394 20.2522 48.4448 18.9083 47.6485 17.5702C45.6532 14.0777 41.9409 12.2013 37.9568 12.6074L37.0723 12.6893C40.2592 15.1046 43.4021 17.5702 46.055 20.518Z" fill="white"/>
<path d="M28.6678 1.06836C14.3353 1.06836 2.78711 12.739 2.78711 27.2253C2.78711 41.7108 14.3353 53.3814 28.6678 53.3814C43.0004 53.3814 54.5477 41.7108 54.5477 27.2253C54.5477 12.739 43.0004 1.06836 28.6678 1.06836ZM28.6678 51.7709C15.2631 51.7709 4.38059 40.7722 4.38059 27.2253C4.38059 13.6775 15.2631 2.67885 28.6678 2.67885C42.0717 2.67885 52.9542 13.6775 52.9542 27.2253C52.9542 40.7722 42.0717 51.7709 28.6678 51.7709Z" fill="#D7CC74"/>
<path d="M50.6968 21.1909C49.7681 15.4225 44.8561 11.1308 39.0243 11.1308C37.9569 11.1308 36.7652 11.2638 35.8374 11.5296C35.041 10.9979 34.2174 10.3917 33.6849 9.99288C32.2478 9.05917 30.129 7.10502 28.7994 5.22949C28.2725 6.43311 25.6782 8.64419 24.1585 9.65409C23.2298 10.326 22.565 10.865 21.8994 11.3975C15.3955 9.65409 8.89086 13.4133 7.03353 19.7142C6.36871 22.1295 6.36871 24.5448 7.16505 26.9602C5.04549 33.2619 8.36398 40.1019 14.5984 42.2513C15.7965 42.6509 17.1197 42.9233 18.4502 42.9233C19.6411 42.9233 20.8392 42.783 21.8994 42.3843C22.565 42.9233 23.2298 43.4558 24.0262 43.9939C25.8819 45.1984 27.3447 46.8089 28.6679 48.5523C30.129 46.6759 31.854 45.0662 33.7106 43.7216C34.2439 43.322 34.9023 42.9233 35.5663 42.3843C36.6337 42.6501 37.8254 42.9233 38.8848 42.9233C43.1319 42.9233 46.9829 40.6408 49.1033 36.8817C49.7673 35.5435 50.3014 34.1997 50.4321 32.7229C50.696 30.8466 50.5645 28.8373 50.0376 26.9602C50.8339 25.0774 50.9662 23.2018 50.696 21.1918L50.6968 21.1909ZM8.89086 27.0939C9.25414 26.3847 10.633 23.8948 12.1284 22.1311C13.6237 20.3675 14.7299 19.3154 17.1197 17.4326C19.7798 15.2896 20.8392 14.6177 22.4327 13.4133C25.6124 15.1559 27.8715 18.2374 28.6679 21.8637C29.3327 18.2374 31.7225 15.0164 35.1717 13.4133C38.3587 15.6884 41.4069 18.1037 44.1985 20.9186C46.0543 22.6685 47.517 24.8115 48.5764 27.0931C47.517 29.369 46.0543 31.5185 44.1985 33.2619C41.4069 35.9431 38.3579 38.4914 35.1717 40.7738C31.854 39.0304 29.5957 35.9423 28.7986 32.3234C28.0023 35.9423 25.6124 39.0304 22.4327 40.6408C20.8392 39.4299 19.6411 38.4914 17.2512 36.6158C14.7291 34.7387 12.6103 32.5892 10.7538 30.1739C10.6151 30.0409 10.4835 29.7743 10.352 29.6422L10.2197 29.5084C9.6872 28.7036 9.29184 27.8988 8.89006 27.0931L8.89086 27.0939ZM24.6854 11.6698C26.1465 10.5919 27.4754 9.38743 28.7994 8.0436C29.9975 9.52035 31.5902 10.865 33.1773 11.9357L33.8429 12.3353C31.7225 13.4133 29.9975 15.1559 28.7994 17.1659C27.6077 15.0237 25.8827 13.4133 23.7567 12.3353C24.0358 12.1715 24.2892 11.9357 24.6854 11.6698ZM19.6419 12.6084H20.3059C19.115 13.5462 17.7853 14.4848 15.5262 16.2282C12.8734 18.5098 10.4835 21.0588 8.62702 24.0067C8.4955 24.1388 8.4955 24.2725 8.36398 24.4119V23.8729C7.69915 18.3704 11.4122 12.4755 19.6419 12.6084ZM19.6419 41.4465C11.4122 41.9782 8.09372 35.5435 8.23165 30.0409V29.369C8.36398 29.5092 8.36398 29.6422 8.4955 29.7743C10.4835 32.7221 12.7418 35.2712 15.3955 37.5528C17.2512 39.1633 18.7132 40.2356 20.1752 41.3128C20.0437 41.3128 19.9113 41.4465 19.6419 41.4465ZM33.1837 42.1184C31.4531 43.1891 29.9975 44.5264 28.6687 46.004C27.4762 44.6667 26.1465 43.3228 24.6854 42.3843L23.7567 41.7123C25.8827 40.6417 27.6077 38.8982 28.7994 36.8817C29.9975 39.0312 31.7225 40.6417 33.7106 41.7123L33.1837 42.1184ZM49.1097 32.1904C48.8395 33.668 48.4449 35.0053 47.6478 36.3492C45.3903 39.9681 42.3412 41.5786 37.5616 41.3128H37.2985C40.4783 39.0312 43.5337 36.3492 46.1866 33.5278C47.2468 32.3234 48.3134 30.9787 49.1105 29.5092C49.2412 30.447 49.2412 31.2527 49.1105 32.1904H49.1097ZM46.0551 20.519C43.4022 17.5712 40.4791 15.0237 37.2921 12.7405H37.9569C41.8087 12.3353 45.6533 14.2189 47.6486 17.7049C48.3134 19.0423 48.8395 20.3861 49.1033 21.8637C49.2412 22.8014 49.2412 23.74 49.1033 24.6778C48.1746 23.0681 47.2468 21.7234 46.0551 20.519Z" fill="#D7CC74"/>
<path d="M28.6687 46.004C29.9975 44.5264 31.4531 43.1891 33.1837 42.1184L33.7106 41.7123C31.7225 40.6417 29.9975 39.0312 28.7994 36.8817C27.6077 38.8982 25.8827 40.6417 23.7567 41.7123L24.6854 42.3843C26.1465 43.3228 27.4762 44.6667 28.6687 46.004Z" fill="white"/>
<path d="M18.7133 24.6753H19.642V23.4717H18.7133V21.1885H17.5216V23.4717H15.9281V24.6753H17.3901L15.5264 28.1621L16.5938 28.7011L17.6532 26.8183V31.649H18.7133V26.4195L19.642 27.3573L20.4383 26.5516L18.7133 24.6753Z" fill="#EB232D"/>
<path d="M21.2341 25.0758C21.1026 24.0051 20.8396 23.0665 20.3055 22.1279L19.2461 22.3946C19.6415 23.3324 19.9109 24.1372 20.1748 25.0758H21.2341Z" fill="#EB232D"/>
<path d="M22.6952 21.3241H21.5035V26.2876C20.7072 26.9596 19.9108 27.625 18.9766 28.164L19.7729 28.9688L21.5035 27.7644C21.2341 29.2355 20.3054 30.4464 19.1145 31.1183L20.0432 31.9231C20.0432 31.9231 20.4377 31.7829 21.7682 30.4464C22.4322 29.2355 22.696 27.8973 22.696 26.5535V21.3232L22.6952 21.3241Z" fill="#EB232D"/>
<path d="M26.4094 29.3676V30.3127C26.4094 30.5785 26.1463 30.8452 25.8825 30.8452H25.3492C25.0862 30.8452 24.8223 30.5785 24.8223 30.3127V27.0925L26.9427 28.7022L27.6075 27.7636L24.8223 25.7478V25.2153L27.2057 22.8L26.4094 21.9952L24.8231 23.6048V21.3232H23.625V30.8452C23.7565 31.65 24.289 31.7829 24.8231 31.7829H26.4094C27.075 31.7829 27.6075 31.2512 27.6075 30.5785V29.2347H26.4094V29.3676Z" fill="#EB232D"/>
<path d="M31.3206 27.6259H30.1289V31.518H31.3206V30.8461H33.7104V27.4922H31.3206V27.6259ZM32.6511 29.7746H31.3206V28.8368H32.6511V29.7746Z" fill="#EB232D"/>
<path d="M30.5234 26.0215H33.4474V27.0922H30.5234V26.0215Z" fill="#EB232D"/>
<path d="M30.5234 24.4102H33.4474V25.4817H30.5234V24.4102Z" fill="#EB232D"/>
<path d="M30.5234 21.4561H33.4474V22.5267H30.5234V21.4561Z" fill="#EB232D"/>
<path d="M30.2617 22.9326H33.8433V24.0041H30.2617V22.9326Z" fill="#EB232D"/>
<path d="M41.6773 29.6408H40.7487C40.7487 30.4457 40.7487 30.5786 40.4784 30.7115C40.3477 30.7115 40.0838 30.5786 39.9515 30.179C40.3477 29.7729 40.7479 29.3742 41.0125 28.9681L40.4784 28.2962H41.4071V27.2255H40.8802L41.4071 26.6865L40.4784 25.7479H41.5394V24.6764H38.4904V24.4106H41.2755V23.3326H38.4904V23.0668H41.5394V21.9953H39.9523L40.3477 21.3233L39.419 20.7852L38.6227 22.1282H36.7653L36.1013 20.9246L35.1727 21.4571L35.5672 22.1282H34.2448V23.2005H37.1607V23.4663L34.3763 23.4728V24.5435H37.1607V24.8102H34.1133V25.8817H39.9523L39.4198 26.4207L40.3477 27.3584H39.156C39.018 26.5536 39.018 26.0211 39.018 26.0211L37.9579 26.2869C37.9579 26.6865 38.0894 27.0926 38.0894 27.3584H36.6346V26.9588C36.8977 26.9588 37.03 26.8194 37.293 26.8194L37.1607 25.8809C36.2328 26.154 35.305 26.2869 34.2448 26.154V26.9588H35.4365V27.2255H34.1133V28.2962H35.4365V29.101C35.0419 29.2348 34.5078 29.2348 34.1133 29.2348L34.3763 30.179C34.7709 30.179 35.0419 30.179 35.4365 30.0396V30.7115C35.0419 30.7115 34.6402 30.5778 34.2448 30.4457V31.6501C36.3644 31.9224 36.4967 31.6501 36.4967 31.2505V29.7729C36.8977 29.64 37.4318 29.5071 37.8263 29.234L37.293 28.2954C37.03 28.4364 36.7661 28.5685 36.4967 28.7014V28.1625H38.2289C38.3596 28.7014 38.4912 29.234 38.6235 29.7729C38.0902 30.1717 37.4318 30.4457 36.8985 30.7115L37.4318 31.6501C37.9579 31.3834 38.492 31.1176 39.0188 30.7115C39.6829 31.9159 40.48 31.9159 40.48 31.9159C41.942 31.9159 41.6781 29.64 41.6781 29.64L41.6773 29.6408ZM39.419 28.2962H40.3477C40.0838 28.5693 39.8144 28.836 39.5513 29.1018C39.5513 28.836 39.5513 28.5693 39.4198 28.2962H39.419Z" fill="#EB232D"/>
</svg>
