<?xml version="1.0" encoding="UTF-8"?>
<svg id="_圖層_1" data-name="圖層 1" xmlns="http://www.w3.org/2000/svg" xmlns:xlink="http://www.w3.org/1999/xlink" viewBox="0 0 1820.03 394.12">
  <defs>
    <style>
      .cls-1 {
        filter: url(#drop-shadow-1);
      }

      .cls-2 {
        fill: #ffffff;
      }
    </style>
    <filter id="drop-shadow-1" x="0" y="0" width="1820.03" height="394.12" filterUnits="userSpaceOnUse">
      <feOffset dx="0" dy="0"/>
      <feGaussianBlur result="blur" stdDeviation="28.35"/>
      <feFlood flood-color="#6dbf91" flood-opacity=".55"/>
      <feComposite in2="blur" operator="in"/>
      <feComposite in="SourceGraphic"/>
    </filter>
  </defs>
  <g class="cls-1">
    <g>
      <path class="cls-2" d="M1212.69,30.32V0h-394.63v30.32h94.39l-93.79,121.27,93.79,121.27h-93.88v30.32h181.9v60.63h-181.9v30.32h394.11v-30.32h-181.9v-60.63h181.9v-30.32h-38.1l-94.99-121.27,94.99-121.27h38.1ZM1024.51,30.32l-19.95,25.47-19.95-25.47h39.91ZM1041.22,151.58l-36.66,46.79-36.66-46.79,36.66-46.79,36.66,46.79ZM948.45,33.16l36.92,47.12-36.66,46.79-36.68-46.83,36.42-47.09ZM856.86,151.58l36.1-46.67,36.56,46.67-36.56,46.67-36.1-46.67ZM948.45,270l-36.42-47.09,36.68-46.83,36.66,46.79-36.92,47.12ZM984.61,272.85l19.95-25.47,19.95,25.47h-39.91ZM1136.21,272.85h-73.31l-39.14-49.97,36.66-46.79,75.8,96.77ZM1060.41,127.08l-36.66-46.79,39.14-49.97h73.31l-75.8,96.77Z"/>
      <rect class="cls-2" x="606.36" y="333.48" width="121.27" height="30.32"/>
      <polygon class="cls-2" points="775.23 242.48 759.73 242.48 668.61 242.48 818.06 52.82 779.6 52.82 724.7 122.48 668.61 122.48 765.13 0 726.66 0 606.33 152.7 700.9 152.7 606.33 272.69 752.45 272.69 787.14 394.12 818.56 394.12 783.87 272.69 775.23 242.48"/>
    </g>
    <g>
      <rect class="cls-2" x="1244.01" width="545.7" height="30.32"/>
      <polygon class="cls-2" points="1789.71 212.22 1789.71 363.8 1607.81 363.8 1607.81 181.9 1820.03 181.9 1820.03 151.58 1421.87 151.58 1421.87 151.58 1402.68 151.58 1402.68 151.58 1214.72 151.58 1214.72 181.9 1378.93 181.9 1212.69 394.12 1251.08 394.12 1417.31 181.9 1577.49 181.9 1577.49 363.8 1577.49 394.12 1820.03 394.12 1820.03 363.8 1820.03 212.22 1789.71 212.22"/>
    </g>
    <g>
      <path class="cls-2" d="M424.43,75.79V0h-30.32v75.79h-181.9v227.38h181.9v90.95h30.32v-90.95h181.9V75.79h-181.9ZM244.07,106.11h150.04v45.47h-150.04v-45.47ZM244.07,272.85v-90.95h150.04v90.95h-150.04ZM574.48,272.85h-150.04v-90.95h150.04v90.95ZM574.48,151.58h-150.04v-45.47h150.04v45.47Z"/>
      <polygon class="cls-2" points="211.18 89.74 142.09 0 103.96 0 162.32 75.79 0 75.79 0 106.11 166.79 106.11 .02 394.12 34.93 394.12 90.95 297.37 90.95 394.12 121.27 394.12 121.27 296.64 177.71 394.12 212.63 394.12 123.78 240.68 211.18 89.74"/>
    </g>
  </g>
</svg>